<?xml version="1.0" encoding="UTF-8"?><svg id="_ÎÓÈ_2" xmlns="http://www.w3.org/2000/svg" xmlns:xlink="http://www.w3.org/1999/xlink" viewBox="0 0 527.66 734.73"><defs><style>.cls-1{fill:#f8b50e;}.cls-2{fill:#f9e5cd;}.cls-3{fill:#fff;}.cls-4{fill:#fff5eb;}.cls-5{fill:#312a20;}.cls-6{fill:#ce909b;}.cls-7{fill:#d0737e;}.cls-8{fill:#aa505f;}.cls-9{fill:#cc3b54;}.cls-10{fill:#d1950f;}.cls-11{fill:#e0cab3;}.cls-12{fill:#1288ad;}.cls-13{fill:#11c5d4;}.cls-14{fill:#1190b7;}.cls-15{fill:#139dce;}.cls-16{fill:#139fd4;}.cls-17{fill:#99c45a;}.cls-18{fill:#2b509e;}.cls-19{fill:#5b7bbb;}.cls-20{fill:#3b4167;}.cls-21{fill:url(#_ÂÁ_Ï_ÌÌ_È_____ËÂÌÚ_5);}.cls-22{fill:url(#_ÂÁ_Ï_ÌÌ_È_____ËÂÌÚ_11);}</style><linearGradient id="_ÂÁ_Ï_ÌÌ_È_____ËÂÌÚ_11" x1="-39.2" y1="471.25" x2="66.19" y2="375.77" gradientTransform="translate(532.29 -190.79) rotate(38.21)" gradientUnits="userSpaceOnUse"><stop offset="0" stop-color="#11c5d4"/><stop offset="1" stop-color="#9b6fc8"/></linearGradient><linearGradient id="_ÂÁ_Ï_ÌÌ_È_____ËÂÌÚ_5" x1="4.67" y1="437.82" x2="-126.41" y2="454.65" gradientTransform="translate(532.29 -190.79) rotate(38.21)" gradientUnits="userSpaceOnUse"><stop offset="0" stop-color="#11c5d4"/><stop offset="1" stop-color="#78f1f4"/></linearGradient></defs><path class="cls-1" d="M516.85,733.96c-2.07-1.02-3.64-2.97-4.08-5.42-7.18-40.3-41.79-59.33-75.26-77.74-31.78-17.48-61.79-33.98-63.41-67.39-1.34-27.61,19.29-53.62,39.24-78.78,13.73-17.31,27.93-35.22,33.11-51.9,5.44-17.5,.54-31.66-15.89-45.91-64.35-55.83-191.64-2.15-192.92-1.6-3.81,1.63-8.22-.13-9.85-3.93-1.63-3.81,.12-8.21,3.93-9.85,1.38-.59,34.35-14.64,76.39-21.46,24.9-4.04,47.78-4.66,68.03-1.85,25.84,3.59,47.46,12.79,64.25,27.36,20.97,18.19,27.63,38.37,20.38,61.69-6.02,19.35-21.1,38.37-35.68,56.76-18.23,22.99-37.08,46.75-36.01,68.74,1.21,25.03,26.44,38.91,55.66,54.97,34.85,19.17,74.36,40.89,82.8,88.25,.73,4.08-1.99,7.97-6.07,8.7-1.63,.29-3.24,.03-4.62-.65Z"/><path class="cls-7" d="M249.12,505.26s-13.8-.45-31.35-4.63c-17.95-4.28-39.84-12.45-54.9-28.02-29.8-30.8,129.92-218.48,129.92-218.48,0,0,17.15,5.24,35.27,16.87,8.84,5.67,17.89,12.85,25.31,21.68,0,0,7.61,43.25-18.85,102.21-8,17.81-19.1,37.05-34.47,56.98-13.45,17.45-30.17,35.42-50.94,53.39Z"/><path class="cls-8" d="M300.06,451.87c-2.28,1.45-4.63,2.82-6.97,4.17-8.41,4.82-17.03,9.33-26.03,12.91-17.71,7.03-38.82,12.01-47.8,28.81-.49,.93-.96,1.92-1.48,2.86-17.95-4.28-39.84-12.45-54.9-28.02-29.8-30.8,129.92-218.48,129.92-218.48,0,0,17.15,5.24,35.27,16.87-1.91,8.89-4.7,17.72-4.74,23.96-.08,9.53,3.99,18.52,6.79,27.62,4.98,16.21,6,33.37,5.81,50.33-.08,7.25-.47,14.68-1.41,21.98-8,17.81-19.1,37.05-34.47,56.98Z"/><path class="cls-2" d="M60.87,195.12c-.66-1.94-1-3.45-1.1-3.87-1.48-6.29-2.08-21.58-.18-43.48,2.68-30.62,9.21-64.35,11.53-75.65,.02-.1,2.21-10.94,3.87-18.12,26-11.67,55.91,.76,55.91,.76l.83,67.36v.02l.09,6.95,3.8,6.13,31.44,50.85,13.86,22.4c-.44,3.36-1,6.51-1.7,9.45-16.6,70.77-104.08,19.45-118.36-22.8Z"/><path class="cls-14" d="M59.76,191.25c-.34-1.44-.59-2.87-.73-4.28-.07-.69-.13-1.39-.19-2.1-.06-.68-.11-1.36-.16-2.07,0-.05,0-.1-.01-.17-.04-.71-.08-1.43-.11-2.16-.18-3.77-.22-7.76-.14-11.91,.02-1.54,.07-3.1,.13-4.68,.19-5.2,.55-10.6,1.02-16.11l22.97-8.16c1.16,4.21,2.54,7.6,4.22,9.73,2.39,3.03,8.08,6.66,15.54,10.5l-42.54,31.42Z"/><path class="cls-2" d="M302.4,319.86c-4.94,5.62-9.75,11.32-14.45,17.07-36.54,44.83-65.57,92.49-86.82,118.96-6.68,8.31-12.59,14.54-17.72,17.93-1.38,.9-2.7,1.6-3.96,2.09-12.66,4.87-32.96-1.02-53.32-11.16-11.6-5.78-23.22-12.94-33.48-20.29-9.83-7.04-18.42-14.25-24.49-20.57-23.55-24.47-24.9-88.83-24.9-88.83,48.45-79.37,103.88-129.4,122.09-144.71,3.94-3.32,6.15-5.01,6.15-5.01,46.86,86.03,139.92,88.41,139.92,88.41-.24,2.75-.54,5.49-.89,8.19-1.64,13.16,.23,28.41-8.12,37.91Z"/><path class="cls-6" d="M310.52,281.95c-.6,.14-1.24,.21-1.88,.21-34.35-.03-67.68-12.21-97.03-35.31-3.03-2.39-6.02-4.89-8.97-7.51-23.54-20.95-35.87-41.77-36.37-42.65-1.18-2.01-1.45-4.29-.93-6.35,3.95-3.32,6.15-5.01,6.15-5.01,46.86,86.03,139.92,88.41,139.92,88.41-.24,2.75-.54,5.48-.89,8.2Z"/><path class="cls-1" d="M60.96,307.69c.39-10.65,9.03-13.81,9.03-13.81,25.38-9.28,46.14-30.2,61.59-51.11,3.12-4.21,6.02-8.43,8.71-12.55,15.09-23.21,23.15-43.35,23.15-43.35,5.58-1.8,15.99-.93,15.99-.93l-4.04,10.96c-7.39,18.18-15.14,33.41-22.98,46.15-2.86,4.66-5.75,8.98-8.62,12.99-41.6,58.1-82.84,51.66-82.84,51.66Z"/><path class="cls-11" d="M306.64,266.36c-13.57,2.68-81.85-11.62-122.32-73.38,0,0-2.87-10.19-2.83-25.8,0,0,0-.01,0-.03,.06-22.69,6.26-56.84,36.3-87.82,50.74-52.33,134.14,8.24,149.52,26.7,7.44,8.94,15.88,22.69,19.71,39.45h0c4.08,17.85,2.94,39.11-10.17,61.6-25.43,43.62-56.64,56.59-70.21,59.27Z"/><path class="cls-2" d="M304.64,244.21c-12.17,2.41-68.39-8.86-109.05-55.8-4.66-5.38-9.11-11.22-13.27-17.58,0,0-.36-1.29-.83-3.64,0,0,0-.01,0-.03,.06-22.69,6.26-56.84,36.3-87.82,2.84-2.93,5.78-5.5,8.81-7.75,51.05-37.93,126.2,17.03,140.7,34.45,7.44,8.94,15.88,22.69,19.71,39.45h0c-.6,12.36-4.14,25.67-12.18,39.44-25.43,43.62-56.64,56.59-70.21,59.27Z"/><path class="cls-6" d="M308.41,234.48c-45.19,6.51-88.56-24.36-112.82-46.08-4.66-5.38-9.11-11.22-13.27-17.58,0,0-.36-1.29-.83-3.64,0,0,0-.01,0-.03,.06-22.69,6.26-56.84,36.3-87.82,2.84-2.93,5.78-5.5,8.81-7.75,63.5,17.83,132.36,92.07,132.36,92.07-27.7,61.63-50.56,70.84-50.56,70.84Z"/><path class="cls-22" d="M305.89,230.13c-34.21,3.57-68.16-15.18-92.56-33.65-21.76-16.47-35.93-32.71-35.93-32.71-9.24-49.69,38.12-90.46,38.12-90.46,14.87,3.63,30.34,10.77,45.29,19.54,47.99,28.12,90.59,72.99,90.59,72.99-24.13,56.52-45.52,64.29-45.52,64.29Z"/><path class="cls-13" d="M279.84,213.05c-23.26,2.43-46.4-5.46-66.5-16.56-21.76-16.47-35.93-32.71-35.93-32.71-9.24-49.69,38.12-90.46,38.12-90.46,14.87,3.63,30.34,10.77,45.29,19.54,36.35,26.22,64.53,55.91,64.53,55.91-24.13,56.52-45.51,64.28-45.51,64.28Z"/><path class="cls-11" d="M331.35,206.36s-12.52,13.03-2.69,28.94c9.82,15.92,25.66-8.99,25.66-8.99l-22.97-19.95Z"/><g><rect class="cls-15" x="366.96" y="172.08" width="6.67" height="20.67" rx="2.5" ry="2.5" transform="translate(275.55 -219.35) rotate(50.5)"/><path class="cls-15" d="M358.8,213.56c6.03-7.66,9.77-15.73,10.68-22.06l3.91-4.96-6.48-5.1c-5.86-4.61-18.98,2.29-29.32,15.42-10.33,13.13-13.96,27.51-8.1,32.12l6.48,5.1,3.91-4.96c5.93-2.37,12.9-7.91,18.93-15.56Z"/><polygon class="cls-15" points="377.11 174.67 385.06 181.53 374.27 190.95 366.96 183.39 377.11 174.67"/><path class="cls-18" d="M365.28,218.66c-10.33,13.13-23.46,20.03-29.32,15.42-5.86-4.61-2.23-18.99,8.1-32.12,10.33-13.13,23.46-20.03,29.32-15.42,5.86,4.61,2.23,18.99-8.1,32.12Z"/><path class="cls-15" d="M361.13,213.7c-5.89,7.48-12.55,12.08-14.87,10.25-.9-.71-1-2.27-.47-4.35,.85-3.3,3.34-7.92,6.95-12.5,3.61-4.59,7.51-8.09,10.52-9.69,1.9-1.01,3.44-1.27,4.34-.57,2.32,1.82-.58,9.37-6.47,16.86Z"/><path class="cls-5" d="M356.31,209.91c-3.61,4.58-7.51,8.09-10.52,9.69,.85-3.3,3.34-7.92,6.95-12.5,3.61-4.59,7.51-8.09,10.52-9.69-.85,3.3-3.34,7.91-6.95,12.5Z"/><path class="cls-18" d="M369.52,195.06l1.06,1.29c.88,1.07,2.45,1.22,3.52,.34l10.82-9.44c1.07-.88,2.49-2.97,1.61-4.04l-1.06-1.29c-.88-1.07-2.45-1.22-3.52-.34l-12.09,9.96c-1.07,.88-1.22,2.45-.34,3.52Z"/></g><path class="cls-1" d="M223.98,322.63c-4.01-2.38-8.4-5.15-13.16-8.39-17.82-12.09-40.7-30.51-67.01-58.21-4-4.2-8.08-8.62-12.22-13.27,3.12-4.21,6.02-8.43,8.71-12.55,3.3,3.82,7.3,8.1,12.13,12.83,14.76,14.49,37.3,33.24,71.62,56.07,4.18,2.78,8.54,5.63,13.08,8.53-5.14,4.54-9.48,9.59-13.15,14.99Z"/><path class="cls-1" d="M229.64,416.51c0,4.83-6.87,14.8-13.11,18.76h0c4.15-5.84,8.53-12.13,13.12-18.76Z"/><path class="cls-1" d="M309.94,286.38c-6.86-.9-21.58,.54-21.58,.54-22.51,2.26-39.1,10-51.23,20.72-5.14,4.53-9.49,9.58-13.16,14.99-11.21,16.52-5.3,43.14,.12,65.34-3.59,9.05-7.43,17.97-10.6,23.38-1.3,2.24-2.92,4.41-4.71,6.53-8.43-26.72-15.14-74.48-1.97-97.32,1.28-2.2,2.61-4.31,4.01-6.33,3.98-5.75,8.44-10.77,13.23-15.12,35.09-32.07,87.11-28.89,87.99-22.88,1.04,7.12-2.09,10.14-2.09,10.14Z"/><path class="cls-20" d="M214.24,243.51c-3.03-2.39-6.02-4.89-8.96-7.51-23.55-20.95-35.87-41.77-36.38-42.65-2.4-4.1-1.04-9.32,3.04-11.66,4.08-2.33,9.33-.91,11.74,3.19h0c.11,.19,11.7,19.67,33.34,38.8,28.5,25.2,60.14,38,94.04,38.04,4.74,0,8.63,3.84,8.69,8.56,.06,4.72-3.73,8.54-8.46,8.54-34.35-.04-67.69-12.21-97.03-35.31Z"/><path class="cls-16" d="M130.96,60.5s-36.73-12.96-56.8-2.83c0,0,4.79-27.26-6.01-45.08-.86-1.41-.34-3.26,1.12-4.04,4.61-2.47,14.46-6.94,25.38-6.86,.76,0,1.49,.33,2.02,.87,1.68,1.72,5.57,5.98,9.39,11.98,1.72,2.7,5.9,1.11,5.37-2.05-.44-2.59-1.21-5.43-2.48-8.32-.82-1.87,.41-4.01,2.45-4.13,2.22-.13,4.99,.05,7.42,1.26,.71,.35,1.23,1,1.46,1.76,.96,3.25,3.8,13.17,6.02,23.93,.6,2.89,4.64,3.16,5.63,.37,.44-1.22,.83-2.41,1.13-3.44,.48-1.65,2.27-2.55,3.87-1.91,2.67,1.07,6.07,3.06,6.58,6.42,.84,5.64-12.53,32.07-12.53,32.07Z"/><path class="cls-18" d="M131.06,60.3s-38.51-14.28-57.54-2.21c0,0-3.89,10.46-2.82,15.96l60.44,1.29s2.55-5.79-.08-15.04Z"/><path class="cls-16" d="M102.3,159.83c-7.45-3.83-13.15-7.47-15.54-10.5-1.67-2.13-3.06-5.51-4.22-9.73l49.18-17.48v.02l.09,6.95,3.8,6.13-33.31,24.6Z"/><path class="cls-21" d="M185.13,140.23c-.48,5.62-.29,11.42,1.66,16.71,1.28,3.49,3.93,7.08,7.65,7.2,2.5,.08,4.8-1.51,6.29-3.53,1.48-2.01,2.29-4.43,3.16-6.77,2.1-5.68,4.77-11.39,9.36-15.35,6.1-5.26,14.83-6.63,22.77-5.29,7.94,1.33,15.26,5.07,22.24,9.08,6.98,4.01,13.83,8.37,21.39,11.14,3.2,1.18,6.5,2.06,9.86,2.63,2.69,.46,5.58,.7,8.05-.48,3.04-1.45,4.79-4.87,4.97-8.24,.18-3.36-.99-6.66-2.54-9.65-3.55-6.83-9.08-12.43-14.87-17.51-16.68-14.62-36.16-25.76-56.64-34.12-5.71-2.33-12.19-6.49-17.51-1.39-6.81,6.53-12.23,16.06-16.48,24.39-4.96,9.72-8.41,20.27-9.35,31.17Z"/><path class="cls-3" d="M201.81,108.48c-.25,1.44-.38,2.99,.25,4.31s2.26,2.26,3.59,1.66c.66-.3,1.12-.9,1.56-1.47,2.05-2.64,4.39-5.17,7.38-6.67,1.62-.81,3.38-1.3,5-2.11,1.62-.81,3.15-2.04,3.73-3.75,.52-1.54,.18-3.29-.64-4.7-2.27-3.9-8.05-7.32-12.03-4.1-4.81,3.9-7.82,10.87-8.84,16.82Z"/><path class="cls-3" d="M196.38,129.81c1.09,1.3,3.25,1.22,4.6,.2,1.36-1.01,2.06-2.68,2.48-4.32,.71-2.74-.11-9.57-4.37-6.84-2.62,1.68-4.83,8.43-2.71,10.96Z"/><path class="cls-18" d="M180.93,315.64c-3.7,4.7-9.73,6.11-13.46,3.18-.86-.68-1.54-1.54-1.99-2.51-1.57-3.22-.92-7.7,1.92-11.32,3.52-4.47,9.15-5.98,12.91-3.57,.19,.11,.38,.25,.56,.39,3.73,2.94,3.77,9.14,.07,13.84Z"/><path class="cls-16" d="M178.37,312.72c-3.51,4.46-9.13,5.97-12.89,3.59-1.57-3.22-.92-7.7,1.92-11.32,3.52-4.47,9.15-5.98,12.91-3.57,1.55,3.22,.9,7.7-1.94,11.3Z"/><path class="cls-9" d="M197.64,328.79c-3.7,4.7-9.73,6.11-13.46,3.18-.86-.68-1.54-1.54-1.99-2.51-1.57-3.22-.92-7.7,1.92-11.32,3.52-4.47,9.15-5.98,12.91-3.57,.19,.11,.38,.25,.56,.39,3.73,2.94,3.77,9.14,.07,13.84Z"/><path class="cls-7" d="M195.07,325.87c-3.51,4.46-9.13,5.97-12.89,3.59-1.57-3.22-.92-7.7,1.92-11.32,3.52-4.47,9.15-5.98,12.91-3.57,1.55,3.22,.9,7.7-1.94,11.3Z"/><path class="cls-18" d="M138.09,327.88s-23.01-15.77-29.78-26.41c0,0,.93-1.07,2.49-2.87,6.14-7.05,22.04-25.28,29.65-33.59,0,0,15.06,15.82,25.8,25.12,1.23,1.07,2.39,2.05,3.49,2.91,0,0-22.12,21.06-31.64,34.84Z"/><path class="cls-16" d="M138.05,321.62s-18.56-12.72-27.25-23.02c6.14-7.05,22.04-25.28,29.65-33.59,0,0,15.06,15.82,25.8,25.12-6.61,6.48-21,21.06-28.2,31.49Z"/><g><path class="cls-2" d="M423.46,229.58s-.2,.51-.58,1.46c-3.02,7.47-17.31,42.14-31.41,65.61,0,0,0,0-.01,.02-2.49,4.15-4.98,7.95-7.4,11.18-1.58-.84-3.15-1.81-4.71-2.89-6.74,4.43-15.92,10.21-26.58,16.24,3.25,3.76,6.19,7.03,8.53,9.6-18.36,17.34-37,33.65-54.4,41.16-9.99,4.32-19.57,5.72-28.44,2.73-12.32-4.16-21.56-9.53-28.29-15.71-1.96-1.8-3.72-3.67-5.28-5.6-8.94-11.06-11.44-24.06-10.33-37.13,1.27-15.19,18.15-30.92,32.96-34.53,11.73-2.87,26.97-11.8,48.16-23.12,6.23-3.31,12.96-6.84,20.27-10.49,1.43-.71,35.74-43.21,40.8-50.4,.22-.31,.39-.57,.49-.74,0,0,25.33,14.96,46.22,32.62Z"/><path class="cls-16" d="M384.5,185s37.12,11.8,47.03,31.98c0,0,12.61-24.64,31.96-32.35,1.54-.61,2.23-2.4,1.54-3.9-2.19-4.75-7.36-14.25-16.12-20.78-.61-.46-1.39-.64-2.14-.52-2.37,.36-8.05,1.41-14.71,3.91-3,1.12-5.37-2.68-3.05-4.87,1.91-1.8,4.23-3.6,7-5.14,1.78-.99,2.09-3.45,.54-4.77-1.69-1.45-4.01-2.96-6.68-3.47-.78-.15-1.59,.06-2.22,.53-2.72,2.01-10.97,8.21-19.23,15.46-2.22,1.95-5.6-.27-4.71-3.09,.39-1.24,.79-2.42,1.18-3.43,.62-1.61-.28-3.4-1.93-3.86-2.77-.76-6.69-1.22-9.12,1.16-4.07,4-9.33,33.14-9.33,33.14Z"/><path class="cls-18" d="M384.54,184.78s39.34,11.82,47.25,32.92c0,0-3.2,10.69-7.37,14.43l-49.01-35.4s1.46-6.16,9.13-11.95Z"/></g><path class="cls-4" d="M282.99,65.81c11.81,1.72,23.4,4.97,34.38,9.65,1.15,.49,2.45,1.18,2.66,2.42,.21,1.25-.91,2.4-2.14,2.7-1.23,.3-2.51-.02-3.73-.33-11.48-2.95-23.38-5.53-35.11-3.81-4.56,.67-9.02,1.99-13.61,2.45-5.89,.6-28.18-2.81-14.53-10.42,9.14-5.1,22.17-4.11,32.08-2.67Z"/><path class="cls-4" d="M137.4,376.51c1.11,.2,2.31,.38,3.32-.14-1.85-2.22-4.77-3.18-7.55-3.95-20.31-5.69-42.39-7.8-59.61-19.97-1.23-.87-2.58-1.82-4.07-1.67,.12-.01,5.15,6.36,5.83,6.99,1.7,1.58,3.14,2.89,5.27,3.82,5.91,2.56,12.48,4.19,18.66,6,12.55,3.66,25.29,6.64,38.16,8.93Z"/><path class="cls-4" d="M95.92,354.96c8.14,1.52,16.7,1.91,24.09,5.65,.66,.33,1.41,1.03,1.03,1.66-.22,.37-.72,.45-1.15,.49-16.77,1.47-34.7-.14-48.46-9.83-1.84-1.29-4.23-4.1-1.37-5.82,1.91-1.15,3.88,.55,5.6,1.38,6.38,3.06,13.3,5.18,20.25,6.47Z"/><g><path class="cls-2" d="M132.92,404.02c-6.26,2.85-12.78,9.84-19.17,19.05-.07,.1-.14,.2-.2,.31-.19,.26-.36,.52-.54,.77-5.15,7.59-10.2,16.56-14.92,25.92l-35.15-9.72c-1.68,5.71-2.93,12.49-3.88,19.83l32.89,2.58c-10.43,22.51-18.47,44.53-21.25,52.37-.01,.05-.03,.1-.05,.16-.1,.25-.18,.49-.25,.71l-.11,.32s0,.02-.02,.03l-.09,.25c-.06,.17-.11,.32-.15,.45l-.07,.19c-.21,.58-.31,.89-.31,.89l-38.3,4.85c-12.19-17.39-23.14-62.29-23.14-62.29-16.81-70.45,37.72-129.94,37.72-129.94,72.57-24.96,115.83,60.15,86.99,73.26Z"/><path class="cls-16" d="M26.44,430.26l36.5,10.1c-1.68,5.71-2.93,12.49-3.88,19.83l-40.37-3.17,7.75-26.76Z"/><path class="cls-18" d="M24.44,440.37s4.2,14.46,3.19,19.98c-1.01,5.52-18.25,8.49-18.25,8.49,0,0-5.7-21.1-5.38-25.88,.32-4.77,20.45-2.59,20.45-2.59Z"/><path class="cls-11" d="M113.75,423.07c-.07,.1-.14,.2-.2,.31-5.26,7.78-10.46,17.07-15.31,26.74-2.11,4.18-4.15,8.43-6.11,12.66-10.44,22.54-18.59,44.54-21.42,52.37-.01,.05-.03,.1-.05,.16-.09,.24-.17,.49-.25,.71l-.11,.32s0,.02-.02,.03l-.09,.25c-.05,.16-.1,.32-.15,.45l-.07,.19c-.21,.58-.31,.89-.31,.89l-12.89,1.63c-.36-18.03-.11-40.7,2.29-59.58l32.89,2.58c1.97-4.24,4.02-8.5,6.13-12.69l-35.15-9.72c.79-2.68,1.67-5.13,2.65-7.29,13.88-30.56,19.1-59.42,19.1-59.42,0,0,13.92,33.54,29.07,49.43Z"/><path class="cls-16" d="M24.46,513.27s6.06,14.65,8.33,16.99c0,0-20.77,9.34-24.85,21.82l66.9-8.47-2.71-18.33,2.95-17.2s-23.14-1.08-50.62,5.19Z"/><path class="cls-12" d="M4.35,416.75s18.25,.84,26.32,8.5l-2.01,15.83-24.8,6.1s-9.02-10.49,.49-30.43Z"/><path class="cls-14" d="M98.09,450.07c-2.11,4.19-4.16,8.45-6.13,12.69l-32.89-2.58c.94-7.35,2.2-14.13,3.88-19.83l35.15,9.72Z"/><path class="cls-18" d="M12.78,553.8c1.31,.04,2.12,1.49,3.37,1.88,2.21,.68,3.95-2.14,6.22-2.56,2.27-.42,4.45,1.66,6.72,1.24,1.73-.32,2.91-1.99,4.6-2.47,2.36-.68,4.87,1.14,7.25,.55,1.95-.48,3.21-2.43,5.11-3.08,3.05-1.04,6.23,1.63,9.44,1.3,3.09-.32,5.67-3.38,8.73-2.83,2.1,.37,4.15,2.4,6.01,1.36,.62-.34,1.04-.98,1.69-1.26,1.08-.47,2.52,.17,3.2-1.41,.28-.66,.27-1.4,.07-2.08-.16-.54-.23-1.44-.83-1.78-.33-.18-.72-.14-1.09-.1-2.02,.23-4.03,.45-6.05,.68-1.8,.2-3.6,.4-5.38,.71-2.9,.49-5.75,1.26-8.63,1.86-9.12,1.9-18.47,2.12-27.73,2.72-4.63,.3-9.27,.68-13.86,1.43-3.83,.63-4.38,2.15-3.56,5.31,.17,.65,.94,.98,1.49,.61,1.07-.72,1.85-2.11,3.26-2.07Z"/><path class="cls-4" d="M14.28,403.99c-.14,.76-.27,1.58,.05,2.28,.32,.7,1.29,1.15,1.9,.67,.24-.19,.37-.48,.5-.76,3.91-8.71,7.82-17.42,11.73-26.12,.97-2.15,3.56-8.66-.6-9.33-3.49-.56-5.14,5.24-6.05,7.48-3.35,8.32-5.88,16.97-7.52,25.78Z"/></g><path class="cls-6" d="M134.43,278.57h0c-.46-.42-.49-1.13-.08-1.59l4.66-5.13c.42-.46,1.13-.49,1.59-.08h0c.46,.42,.49,1.13,.08,1.59l-4.65,5.13c-.42,.46-1.13,.49-1.59,.08Z"/><path class="cls-2" d="M215.7,575.83l-29.15,25.33c-19.8-7.67-53.86-38.91-53.86-38.91-29.28-27.12-38.07-77.77-40.05-117.78-1.63-32.61,1.26-58.14,1.26-58.14,37.05-48.74,96.22,1.01,110.16,36.8,3.53,9.07,4.16,17.24,.79,22.69-1.65,2.67-2.87,6.09-3.72,10.09-1.02,4.75-1.52,10.32-1.62,16.4,0,.12,0,.24,0,.37-.01,.32,0,.63-.02,.94-.06,9.18,.74,19.45,2.01,29.85l-13.45,4.45-21.17,7.01c1.77,5.68,4.5,12.01,7.8,18.64l18-10.1,10.78-6.04c2.22,14.13,5.01,27.7,7.36,38.19h0c1.73,7.7,3.22,13.75,4.09,17.15,.02,.05,.04,.11,.04,.17,.07,.27,.13,.51,.19,.73,.03,.1,.06,.22,.09,.32,0,.01,0,.02,0,.04,.02,.09,.05,.18,.06,.26,.05,.17,.09,.32,.13,.46,.01,.06,.04,.13,.05,.19,.15,.6,.23,.91,.23,.91Z"/><path class="cls-17" d="M139.45,283.13h0c-.46-.42-.49-1.13-.08-1.59l4.66-5.13c.42-.46,1.13-.49,1.59-.08h0c.46,.42,.49,1.13,.08,1.59l-4.65,5.13c-.42,.46-1.13,.49-1.59,.08Z"/><path class="cls-10" d="M229.64,416.51c-4.59,6.62-8.97,12.92-13.12,18.75-2.38-2.9-5.15-9.13-7.74-17.36,1.79-2.13,3.41-4.3,4.71-6.53,3.16-5.41,7.01-14.34,10.6-23.38,2.75,11.3,5.38,21.44,5.55,28.53Z"/><path class="cls-11" d="M237.12,307.65c.3,15.9,.08,32.77,5.39,42.04,4.18,7.31,16.03,16.69,24.45,20.35-16.08,21.1-24.56,28.07-37.32,46.46-.17-7.08-2.8-17.23-5.55-28.53,6-15.15,11.25-30.65,11.25-30.65-5.79-28.06,1.17-46.5,1.79-49.68Z"/><path class="cls-11" d="M199.49,473.6c-.06,9.18,.74,19.45,2.01,29.85l-13.45,4.45c-2.92-12.31-4.17-24.19-4.64-34.08-.34-7.1-.27-13.16-.13-17.61,.42-13.58,11.46-23.32,20.79-33.09,1.64-1.73,3.25-3.46,4.72-5.22,2.59,8.23,5.35,14.46,7.74,17.36-5.52,7.76-10.65,14.72-15.39,20.63-1.02,4.75-1.52,10.32-1.62,16.4,0,.12,0,.24,0,.37-.01,.32,0,.63-.02,.94Z"/><path class="cls-11" d="M210.81,555.6c-8.21-9.69-14.04-20.82-18.13-32.15l10.78-6.04c2.22,14.13,5.01,27.7,7.36,38.19Z"/><path class="cls-19" d="M153.37,296.2h0c-.46-.42-.49-1.13-.08-1.59l4.65-5.13c.42-.46,1.13-.49,1.59-.08h0c.46,.42,.49,1.13,.08,1.59l-4.66,5.13c-.42,.46-1.13,.49-1.59,.08Z"/><path class="cls-5" d="M125.77,283.06l-10.66,12.23c-.56,.64-.55,1.58,0,2.22,2.44,2.74,9.33,10.02,18.54,15.93,.69,.44,1.61,.31,2.15-.3,2.03-2.29,6.89-7.73,10.14-11.01,.68-.68,.64-1.79-.08-2.43-3.64-3.21-13.62-12.14-17.57-16.64-.67-.77-1.86-.77-2.53,0Z"/><path class="cls-16" d="M130.92,526.81l35.95-11.9c1.78,5.67,4.5,12.01,7.8,18.64l-35.32,19.8-8.43-26.55Z"/><path class="cls-18" d="M134.88,536.33s11.53,9.68,13.75,14.83c2.23,5.15-10.45,17.2-10.45,17.2,0,0-16.47-14.38-18.86-18.52-2.39-4.14,15.56-13.52,15.56-13.52Z"/><path class="cls-16" d="M175.43,596.91s13.18,8.81,16.37,9.49c0,0-12.08,19.31-8.53,31.95l50.9-44.23-12.44-13.72-7.11-15.94s-19.84,11.97-39.19,32.46Z"/><path class="cls-12" d="M105.06,527.86s15.64-9.44,26.6-7.57l7.14,14.28-17.22,18.86s-13.33-3.71-16.51-25.57Z"/><path class="cls-14" d="M203.45,517.41l-10.78,6.04c-1.87-5.18-3.4-10.4-4.63-15.55l13.45-4.45c.57,4.65,1.23,9.33,1.95,13.96Z"/><path class="cls-16" d="M192.68,523.45l-18,10.1c-3.3-6.63-6.02-12.96-7.8-18.64l21.17-7.01c1.23,5.15,2.75,10.37,4.63,15.55Z"/><path class="cls-18" d="M188.25,637.09c1.11-.7,2.59,.07,3.84-.31,2.21-.66,2.09-3.97,3.75-5.59,1.66-1.61,4.62-1.09,6.27-2.7,1.26-1.22,1.32-3.27,2.45-4.61,1.58-1.87,4.68-1.76,6.33-3.57,1.35-1.48,1.32-3.8,2.53-5.4,1.96-2.56,6.09-2.11,8.57-4.17,2.39-1.99,2.84-5.96,5.68-7.21,1.95-.86,4.78-.32,5.75-2.21,.32-.63,.32-1.39,.7-1.98,.64-.99,2.19-1.26,1.88-2.95-.13-.7-.55-1.31-1.1-1.77-.44-.36-.99-1.08-1.68-1.01-.37,.03-.68,.28-.97,.53-1.55,1.31-3.1,2.62-4.65,3.92-1.38,1.17-2.76,2.33-4.08,3.58-2.14,2.02-4.08,4.24-6.14,6.34-6.53,6.65-14.17,12.03-21.54,17.68-3.68,2.82-7.33,5.72-10.72,8.89-2.83,2.65-2.45,4.22,0,6.39,.5,.44,1.33,.3,1.58-.32,.49-1.19,.36-2.79,1.55-3.54Z"/><path class="cls-4" d="M106.21,511.73c.3,.71,.65,1.46,1.31,1.86s1.71,.24,1.95-.5c.09-.29,.04-.6,0-.91-1.59-9.41-3.18-18.82-4.77-28.24-.39-2.33-1.85-9.18-5.69-7.42-3.22,1.47-1.36,7.21-.87,9.58,1.84,8.78,4.55,17.37,8.08,25.61Z"/><path class="cls-16" d="M379.35,304.95c-6.74,4.43-15.92,10.21-26.58,16.24-15.75-18.16-38.88-47.69-37.09-62.6,6.23-3.31,12.96-6.84,20.27-10.49,0,0,20.71,41,43.4,56.85Z"/><path class="cls-14" d="M384.06,307.85c-1.99,2.68-3.94,4.98-5.82,6.75-5.58,5.35-11.25,10.82-16.94,16.19-2.34-2.56-5.28-5.84-8.53-9.6,10.66-6.04,19.84-11.81,26.58-16.24,1.56,1.09,3.13,2.06,4.71,2.89Z"/><path class="cls-11" d="M352.77,321.2c3.25,3.76,6.19,7.03,8.53,9.6-18.36,17.34-37,33.65-54.4,41.16-9.99,4.32-19.57,5.72-28.44,2.73-12.32-4.16-21.56-9.53-28.29-15.71-1.96-1.8-3.72-3.67-5.28-5.6,32.18,5.73,76.43-14.34,107.88-32.17Z"/><path class="cls-11" d="M391.46,296.66c-2.49,4.15-4.98,7.95-7.4,11.18-1.58-.84-3.15-1.81-4.71-2.89,7.35-4.85,11.81-8.07,12.12-8.29Z"/></svg>