<svg version="1.1" id="Layer_1" xmlns="http://www.w3.org/2000/svg" xmlns:xlink="http://www.w3.org/1999/xlink" x="0px" y="0px"
	 viewBox="0 0 665.5 672.9" style="enable-background:new 0 0 665.5 672.9;" xml:space="preserve">
<style type="text/css">
	.st0{fill:#EA7480;}
	.st1{fill:#FEE5CE;}
	.st2{fill:#00A1D7;}
	.st3{fill:#00529F;}
	.st4{fill:#E9CCB5;}
	.st5{fill:#008AB0;}
	.st6{fill:#E3929E;}
	.st7{fill:#FCB315;}
	.st8{fill:url(#SVGID_1_);}
	.st9{fill:#374069;}
	.st10{fill:#009ED1;}
	.st11{fill:#EC3B55;}
	.st12{fill:#45B758;}
	.st13{fill:#497CBF;}
	.st14{fill:url(#SVGID_00000137821023522263664960000001029868212356321930_);}
	.st15{fill:url(#SVGID_00000148657541707023146180000010733706041131160510_);}
	.st16{fill:#FFFFFF;}
	.st17{fill:#FFF4EC;}
	.st18{fill:#31261A;}
	.st19{fill:#006E8E;}
	.st20{fill:#455CA1;}
	.st21{fill:url(#SVGID_00000144315845294747775420000009797541828223024040_);}
	.st22{font-family:'Montserrat-Bold';}
	.st23{font-size:92.4666px;}
</style>
<path class="st0" d="M149.9,247.6h228.3c6.6,0,12,5.4,12,12v251.6c0,6.6-5.4,12-12,12H149.9c-6.6,0-12-5.4-12-12V259.6
	C137.9,253,143.3,247.6,149.9,247.6z"/>
<path class="st1" d="M360.5,453.7c0,0-3,3.1-8,8.2l0,0c-1.3,1.4-2.8,2.8-4.4,4.4c-22.9,22.9-70.6,69.1-82,68.3c-0.1,0-0.1,0-0.2,0
	c-0.2,0-0.4,0-0.6-0.1c-13.1-2.5-59.5-43.4-78.8-60.7c-5.2-4.7-8.5-7.7-8.5-7.7s-1.3-1.9-2.5-5c-1.5-3.9-2.7-9.8-0.8-16.4
	c0.4-1.4,0.6-4.8,0.4-9.6c-0.1-2.8-0.2-6.1-0.4-9.8c0-0.5-0.1-1-0.1-1.5l0,0c-0.1-2.3-0.3-4.8-0.5-7.4c-0.2-3.7-0.5-7.6-0.9-11.7
	c-0.7-9-1.6-18.8-2.5-28.8c-0.6-5.8-1.1-11.8-1.7-17.6c-0.9-8.7-1.7-17.2-2.5-25.2c-2.8-27-5.2-48.1-5.2-48.1l3-1.4l14.6-6.9
	l1.7-0.8l9.4-4.4l0,0l42.8-0.5l66-0.8l44.5-0.6l4.8-0.1c0,0,0.8,2.5,2,6.6c0.4,1.4,0.9,2.9,1.3,4.6c1.4,4.9,2.9,11,4.3,17.6
	c1.5,7.3,2.8,15,3.1,22.1c0.1,1.6,0.1,3.2,0.1,4.8c0,1.7,0,3.8,0,6.4C359.2,361.3,360.3,444.8,360.5,453.7L360.5,453.7z"/>
<path class="st1" d="M448.7,342.8c0,0-1.1,29.6-15.9,48.4c-3,3.8-6.5,7.1-10.6,9.6c-12.8,7.9-49.1,23.2-62.7-31
	c-0.1-0.3-0.1-0.6-0.2-0.9c0,0-2.5-12.3-4.9-25.1c-2.5-13.4-4.8-27.4-3.9-28.6c1-1.5,3.4-9.8,5.5-17.2c1.5-5.2,2.7-9.9,3.2-11.7
	c1.2-4.3,10.6-13.9,10.6-13.9s9,7.7,17.5,16.7c7.1,7.5,13.9,16,14.8,21.6c0,0,15.7-17,28.7-17L448.7,342.8L448.7,342.8z"/>
<path class="st1" d="M179.5,257.4c0,0-74.8-164,80.9-164c154.5,0,81.7,169,81.7,169S231.3,299.3,179.5,257.4L179.5,257.4z"/>
<path class="st1" d="M378.2,557.3c-0.6,12.6-2,27-5.6,41.2c-3.2,12.6-7.6,22.8-12.7,32.8c-0.6,1.1-1.2,2.3-1.8,3.4l-45.1,1
	c0,0-0.5-1.2-1.4-3.4c-13.5-33.6-21.9-54.4-23.2-57.4c-6.5-15.7-14.1-30.5-22.5-40.3c-0.1-0.1-0.2-0.3-0.4-0.4
	c-2.1-2.5-4.3-4.6-6.5-6.4c-10.2-8.1-2.9-18.2,11.4-28.1c31.2-21.6,66.3-39,90-46c0,0,2.7,18.8,8.6,37.8c4.5,14.8,8.8,33.7,9.3,54.3
	C378.4,549.6,378.4,553.4,378.2,557.3L378.2,557.3z"/>
<path class="st2" d="M361,631.3c0,0-4.2,15.3-6.1,17.9c0,0,21.8,6.7,27.4,18.5h-67.4l0.4-18.5l-5.1-16.7
	C310.2,632.5,333,628.6,361,631.3L361,631.3z"/>
<path class="st3" d="M377.7,670.1c-1.3,0.2-1.9,1.8-3.1,2.3c-2.1,1-4.2-1.6-6.5-1.8s-4.2,2.2-6.5,2.1c-1.8-0.1-3.1-1.6-4.9-1.9
	c-2.4-0.4-4.7,1.7-7.1,1.5c-2-0.2-3.5-2-5.5-2.4c-3.2-0.7-6,2.4-9.2,2.5c-3.1,0.1-6-2.6-9-1.7c-2,0.6-3.8,2.9-5.8,2.1
	c-0.6-0.3-1.1-0.8-1.8-1c-1.1-0.3-2.5,0.5-3.4-1c-0.4-0.6-0.4-1.3-0.3-2c0.1-0.6,0-1.5,0.6-1.9c0.3-0.2,0.7-0.2,1.1-0.2
	c2,0,4.1-0.1,6.1-0.1c1.8,0,3.6,0,5.4,0c2.9,0.1,5.9,0.5,8.8,0.8c9.3,0.7,18.6-0.2,27.9-0.8c4.6-0.3,9.3-0.5,13.9-0.3
	c3.9,0.1,4.6,1.6,4.2,4.8c-0.1,0.7-0.8,1.1-1.4,0.8C380.1,671.1,379.1,669.9,377.7,670.1L377.7,670.1z"/>
<path class="st4" d="M170.7,373.4l2.4,27.5l15.2-18c0,0-0.3-15.2-1.2-15.2s-16.7,3.5-16.7,3.5L170.7,373.4z"/>
<path class="st4" d="M375.6,584.2c-0.3,1.9-0.6,3.7-1,5.5c-0.6,3.1-1.3,6-2,8.8c-2.8,1-5.9,1-8.9,1c-7.9,0-15.8-0.5-23.6-1.6
	c-2.4-0.3-5.1-0.9-6.3-3c-0.6-1-0.8-2.2-1.5-3.1c-1.4-1.7-4-1.5-6.2-1.2c-9.6,1.5-19.6,3.9-29.3,4.7c-0.5-1.3-1-2.6-1.5-3.8
	c-0.7-1.8-1.4-3.5-2-5.1c2.3-1.1,6.1-1.2,8-1.6c3.8-0.8,7.3-2.2,11-3.3c8-2.4,16.5-2.8,24.8-3.1h0.7c11.5-0.5,23.5-0.9,34.1,3.6
	c1.2,0.5,2.5,1.2,3.6,1.9C375.4,584,375.5,584.1,375.6,584.2L375.6,584.2z"/>
<path class="st2" d="M377.8,563.9c-0.1,1.3-0.2,2.5-0.3,3.8c-0.4,5.3-1.2,12.9-2.9,22c-0.3-0.1-0.7-0.1-1-0.2
	c-13.5-2.1-25.7-2.9-36.5-2.8c-18.8,0.1-33.1,2.7-41.9,4.9c-0.7-1.8-1.4-3.5-2-5.1c-1.9-4.6-3.3-8.2-3.9-9.7
	c-0.3-0.6-0.5-1.3-0.8-1.9c11-4.5,30.2-7.2,48.8-8.8c0,0,0,0,0.1,0C353.3,564.7,368.7,564.1,377.8,563.9L377.8,563.9z"/>
<path class="st3" d="M378.2,561.2c0,0,0.1,20.4-7.2,34.1c0,0-10.4,5.2-33.5-0.3c0,0-1.8-30.6,1.4-37.9
	C342.1,549.9,378.2,561.2,378.2,561.2L378.2,561.2z"/>
<path class="st5" d="M381.5,546.5c0,0-16.2-4.5-41.4-1c0,0-7,10.3-2.7,21l24.1,10.6l16.7-9.8C378.2,567.3,385.6,558,381.5,546.5z"/>
<path class="st1" d="M275.8,523.2c-3.5,2.8-6.9,6.5-10.2,11c-0.1,0.1-0.2,0.2-0.2,0.3c-7,9.6-13.4,22.4-19,35.8
	c-0.8,1.9-5.1,12.6-7.9,19.4c-5.5,13.5-12.4,30.8-15.3,38c-0.9,2.1-1.4,3.4-1.4,3.4l-45.1-1c-0.6-1.1-1.2-2.3-1.8-3.4
	c-5.5-10.7-10.1-21.7-13.4-35.7c-3.1-13.3-4.4-26.8-4.9-38.3c-0.2-3.9-0.2-7.7-0.1-11.4c0.4-13.7,2.3-26.7,5-38.2
	c4.4-19.3,10.7-34.5,14.1-42c1.5-3.3,2.5-5.2,2.5-5.2s5.5,1.8,13.9,5c20.9,7.8,60,23.5,78.5,38.9
	C280.5,508.1,284.4,516.4,275.8,523.2z"/>
<path class="st4" d="M240.9,583.7c-0.4,1.1-0.9,2.2-1.3,3.3c-0.4,0.9-0.7,1.8-1.1,2.7c-11.8-1.9-23.6-3.8-35.3-5.7
	c-1.2-0.2-2.8-0.3-3.4,0.8c-0.4,0.8-0.2,1.7-0.1,2.6c0.1,2.4-1.6,4.6-3.7,5.8c-2.1,1.2-4.5,1.5-6.9,1.8c-6.4,0.7-12.9,1.1-19.2-0.3
	c-2.8-0.6-5.7-1.9-8.3-3.6c-0.4-1.9-0.9-3.9-1.3-5.9c-0.2-1-0.4-1.9-0.5-2.9c-0.1-0.6-0.2-1.1-0.3-1.7c-0.1-0.8-0.3-1.6-0.4-2.4
	c0-0.1,0-0.2-0.1-0.3l0,0c0.1,0,0.1,0,0.2-0.1c5.6-1.9,14.1-2.3,16.6-2.5c7.4-0.7,14.7-1.1,22.1-1c4.5,0,9,0.2,13.4,0.5
	C221.7,575.4,232.7,577.1,240.9,583.7L240.9,583.7z"/>
<path class="st2" d="M173.7,626.7c0,0,4.2,15.3,6.1,17.9c0,0-21.8,6.7-27.4,18.5h67.4l-0.4-18.5l5.1-16.7
	C224.6,627.9,201.8,624,173.7,626.7L173.7,626.7z"/>
<path class="st3" d="M157,665.5c1.3,0.2,1.9,1.8,3.1,2.3c2.1,1,4.2-1.6,6.5-1.8c2.3-0.1,4.2,2.2,6.5,2.1c1.8-0.1,3.1-1.6,4.9-1.9
	c2.4-0.4,4.7,1.7,7.1,1.5c2-0.2,3.5-2,5.4-2.4c3.2-0.7,6,2.4,9.2,2.5c3.1,0.1,6.1-2.6,9-1.7c2,0.6,3.8,2.9,5.8,2.1
	c0.6-0.3,1.1-0.8,1.8-1c1.1-0.3,2.5,0.5,3.4-1c0.4-0.6,0.4-1.3,0.3-2c-0.1-0.6,0-1.5-0.6-1.9c-0.3-0.2-0.7-0.2-1.1-0.2l-6.1-0.1
	c-1.8,0-3.6,0-5.4,0c-2.9,0.1-5.9,0.5-8.8,0.8c-9.3,0.7-18.6-0.2-27.9-0.8c-4.6-0.3-9.3-0.5-13.9-0.3c-3.9,0.1-4.6,1.6-4.2,4.8
	c0.1,0.7,0.8,1.1,1.4,0.8C154.7,666.5,155.6,665.3,157,665.5L157,665.5z"/>
<path class="st2" d="M246.3,570.3c-0.3,0.6-0.5,1.3-0.8,1.9c-0.7,1.7-2.4,6-4.7,11.5c-0.4,1.1-0.9,2.2-1.3,3.3
	c-8.8-2.2-23.1-4.8-41.9-4.9c-10.8-0.1-23,0.7-36.5,2.8c-0.3,0-0.7,0.1-1,0.2c-1.7-8.9-2.6-16.5-3.2-25.8c9.1,0.2,24.6,0.8,40.5,2.2
	c0,0,0,0,0.1,0C216.1,563.1,235.3,565.8,246.3,570.3L246.3,570.3z"/>
<path class="st3" d="M156.5,556.6c0,0-0.1,20.4,7.2,34.1c0,0,10.4,5.2,33.6-0.3c0,0,1.8-30.6-1.4-37.9
	C192.6,545.3,156.5,556.6,156.5,556.6L156.5,556.6z"/>
<path class="st4" d="M432.8,391.2c-3,3.8-6.5,7.1-10.6,9.6c-12.8,7.9-49.1,23.2-62.7-31c0.1,9,0.2,18.5,0.3,27.6l0,0
	c0,1.7,0,3.4,0,5c0,4.4,0.1,8.6,0.1,12.8c-3.4-1.2-9.1-3.9-14.6-9.5c2.4-15.9,4.9-32.6,4.9-32.6l4.1-29.4l1.3-9.1
	c0,0,0.2,0.8,0.5,2.1c0.6,2.6,1.7,7.4,3.2,12.7c2.2,7.8,5,16.7,7.9,21.2C372.9,379.6,383.1,414.5,432.8,391.2L432.8,391.2z"/>
<path class="st5" d="M153.3,541.9c0,0,16.2-4.5,41.4-1c0,0,7,10.3,2.7,21l-24.1,10.6l-16.7-9.8C156.6,562.7,149.2,553.4,153.3,541.9
	z"/>
<path class="st6" d="M356.8,268.4c-0.4,3.2-2.6,6.1-5.9,7.2c-0.2,0-0.4,0.1-0.5,0.2c-7.6,2.4-15,4.4-22.3,6.1
	c-24.1,5.6-46.4,7.6-66,7.6c-24.4,0-44.7-3.1-59.5-6.4c-11.4-2.5-19.4-5.2-23.5-6.6c-1.6-0.6-2.5-0.9-2.8-1.1c-2.5-1-4.3-3.1-5-5.5
	c0.5-0.2,1-0.3,1.3-0.4c0.5-0.1,0.8-0.2,0.8-0.2c6.8-0.7,12.4,0.1,16.8,2l0,0l42.8-0.5c8.9,1,18.8,1.6,29.6,1.6
	c11.3,0,23.5-0.7,36.5-2.4l44.5-0.6C347.3,268.2,351.7,267.9,356.8,268.4L356.8,268.4z"/>
<path class="st6" d="M174.7,158c0,0,68.8-24,170.2,0c0,0,13.5,47.4-8,88.9c0,0-91.8,13-151.3-2.2C185.6,244.7,165.5,201.9,174.7,158
	L174.7,158z"/>
<path class="st4" d="M359.8,402.5c0,4.4,0.1,8.6,0.1,12.8c-3.4-1.2-9.1-3.9-14.6-9.5c-8.3-8.4-16.2-23.4-14.9-49.9
	c-14.1-1.4-78.7-6.4-127.3,1.1c2.2,44.7-20.8,56.5-28.9,59.2c-0.2-3.7-0.5-7.6-0.9-11.7c7.1-14.5,7.9-34.2,5.9-54.1
	c-2.6-25.7-9.9-51.7-14.9-67.2c-1.3-4.2-2.5-7.6-3.4-10c5.7-2.1,9.9-3.4,11.5-3.9c4.5,2.3,8,5.6,8,5.6c0.1,0.2,0.1,0.4,0.2,0.6
	c8.6,24.5,13.6,44.9,16.2,61.9c0.8-0.1,1.8-0.2,2.9-0.3c20.1-2,81.8-7,131-0.3c2.1,0.3,4.2,0.6,6.2,0.9c2.4-15.9,6.9-34.8,14.6-57.4
	c0.6-1.8,1.2-3.6,1.9-5.4c0,0,3.3-3.2,7.6-5.2c2.6,0.9,6.3,2.1,10.8,3.8c-2.5,7.3-8.4,25.3-12.8,46.5c-1.1,5.4-2.1,11-3,16.7
	c-0.8,5.1-1.4,10.2-1.8,15.4C352.8,370.5,353.8,388.6,359.8,402.5L359.8,402.5z"/>
<path class="st7" d="M369.9,272.3c-8.1-6.4-16.6-4.2-16.6-4.2c-8.8,25-13.9,45.6-16.4,62.8c-52.7-8.4-123.3-2-140.2-0.3
	c-2.6-17.1-7.6-37.6-16.4-62.5c0,0-8.5-2.1-16.6,4.2c0,0,30.9,82.2,9.2,125.8c0,0-3.6,5.7,1.1,13.6c0,0,27.3-8.4,24.6-62.6
	c48.6-7.5,122.3-1,136.4,0.4c-2.5,53.8,24.6,62.2,24.6,62.2c4.7-7.8,1.1-13.6,1.1-13.6C338.9,354.6,369.9,272.3,369.9,272.3
	L369.9,272.3z"/>
<linearGradient id="SVGID_1_" gradientUnits="userSpaceOnUse" x1="172.5296" y1="159.5955" x2="348.3532" y2="159.5955" gradientTransform="matrix(1 0 0 1 0 34)">
	<stop  offset="0" style="stop-color:#00B0C5"/>
	<stop  offset="1" style="stop-color:#A172B1"/>
</linearGradient>
<path class="st8" d="M174.7,150.9c0,0,70.8-25.3,170.2,0c0,0,12.1,47.3-9,91.2c0,0-89.9,13.7-148.3-2.4
	C187.6,239.8,165.7,197.4,174.7,150.9L174.7,150.9z"/>
<path class="st9" d="M262,284.4c-50.4,0-83.7-13.2-85.7-14c-4.4-1.8-6.4-6.7-4.7-11.1c1.8-4.3,6.7-6.4,11.1-4.7l0,0
	c0.7,0.3,72.3,28.4,163.1-0.2c4.5-1.4,9.2,1.1,10.7,5.5c1.4,4.5-1.1,9.2-5.5,10.7C318.1,280.9,287.8,284.4,262,284.4L262,284.4z"/>
<g>
	<path class="st3" d="M155.5,149.5l2.2-0.2c1.6-0.2,3,1,3.1,2.6l1.5,15.4c0.2,1.6-1,3-2.6,3.1l-2.2,0.2c-1.6,0.2-3-1-3.1-2.6
		l-1.5-15.4C152.8,151,153.9,149.6,155.5,149.5z"/>
	<path class="st10" d="M163.7,225.1L163.7,225.1c-3.8,0.4-7.2-2.4-7.5-6.2l-4.7-49.3c-0.4-3.8,2.4-7.2,6.2-7.5l0,0
		c3.8-0.4,7.2,2.4,7.5,6.2l4.7,49.3C170.2,221.4,167.4,224.8,163.7,225.1z"/>
</g>
<g>
	<path class="st3" d="M364.6,168.9l-2.2-0.2c-1.6-0.2-2.7-1.6-2.6-3.1l1.5-15.4c0.2-1.6,1.6-2.7,3.1-2.6l2.2,0.2
		c1.6,0.2,2.7,1.6,2.6,3.1l-1.5,15.4C367.6,167.9,366.2,169.1,364.6,168.9z"/>
	<path class="st10" d="M358.5,223.4L358.5,223.4c3.8,0.4,7.2-2.4,7.5-6.2l4.7-49.3c0.4-3.8-2.4-7.2-6.2-7.5l0,0
		c-3.8-0.4-7.2,2.4-7.5,6.2l-4.7,49.3C351.9,219.7,354.7,223.1,358.5,223.4z"/>
</g>
<path class="st3" d="M298.7,386.7c0,6.3-5.1,11.5-11.5,11.5c-5.6,0-10.3-4.1-11.3-9.4c-0.1-0.7-0.2-1.3-0.2-2
	c0-6.3,5.1-11.5,11.5-11.5c4.5,0,8.4,2.6,10.2,6.3C298.3,383.1,298.7,384.8,298.7,386.7L298.7,386.7z"/>
<path class="st11" d="M330.5,386.7c0,6.3-5.1,11.5-11.5,11.5c-5.6,0-10.4-4.1-11.3-9.5c-0.1-0.6-0.2-1.3-0.2-2
	c0-6.3,5.1-11.5,11.5-11.5c4.5,0,8.4,2.6,10.2,6.3C330.1,383.1,330.5,384.8,330.5,386.7L330.5,386.7z"/>
<path class="st3" d="M259,380.9v44.3c0,3.2-2.6,5.7-5.7,5.7H209c-3.1,0-5.6-2.5-5.7-5.5c0-0.1,0-0.1,0-0.2v-44.3
	c0-3.2,2.6-5.7,5.7-5.7h44.3c1.9,0,3.6,1,4.7,2.4C258.6,378.5,259,379.7,259,380.9L259,380.9z"/>
<path class="st2" d="M297.7,383.5c0,6.3-5.1,11.5-11.5,11.5c-4.5,0-8.4-2.6-10.2-6.3c-0.1-0.7-0.2-1.3-0.2-2
	c0-6.3,5.1-11.5,11.5-11.5c4.5,0,8.4,2.6,10.2,6.3C297.6,382.2,297.7,382.9,297.7,383.5z"/>
<path class="st0" d="M329.4,383.5c0,6.3-5.1,11.5-11.5,11.5c-4.5,0-8.4-2.6-10.2-6.3c-0.1-0.6-0.2-1.3-0.2-2
	c0-6.3,5.1-11.5,11.5-11.5c4.5,0,8.4,2.6,10.2,6.3C329.4,382.2,329.4,382.8,329.4,383.5L329.4,383.5z"/>
<path class="st2" d="M257.9,377.8v44.3c0,3.2-2.6,5.7-5.7,5.7h-44.3c-1.9,0-3.6-1-4.7-2.4c0-0.1,0-0.1,0-0.2v-44.3
	c0-3.2,2.6-5.7,5.7-5.7h44.3c1.9,0,3.6,1,4.7,2.4C257.9,377.7,257.9,377.7,257.9,377.8L257.9,377.8z"/>
<path class="st0" d="M209.5,391L209.5,391c-1.1,0-1.9-0.9-1.9-1.9v-8c0-1,0.9-1.9,1.9-1.9l0,0c1.1,0,1.9,0.9,1.9,1.9v8
	C211.4,390.2,210.6,391,209.5,391z"/>
<path class="st12" d="M217.2,391L217.2,391c-1.1,0-1.9-0.9-1.9-1.9v-8c0-1,0.9-1.9,1.9-1.9l0,0c1.1,0,1.9,0.9,1.9,1.9v8
	C219.1,390.2,218.3,391,217.2,391z"/>
<path class="st13" d="M251.4,391.2L251.4,391.2c-1.1,0-1.9-0.9-1.9-1.9v-8c0-1,0.9-1.9,1.9-1.9l0,0c1.1,0,1.9,0.9,1.9,1.9v8
	C253.3,390.3,252.4,391.2,251.4,391.2z"/>
<path class="st4" d="M302.5,449.4c4.4-1.2,8.8-2.4,13.3-3c1.8-0.3,2.6,2.1,1,3c-13.3,6.9-28.4,10.6-41.4,18c-1.4,0.8-0.8,3,0.9,2.9
	l19.6-0.9c5.4-0.2,10.8-0.5,16.2-0.4c1.9,0,2.1,2.8,0.2,3.1h-0.1c-18.4,3.3-36.9,6.6-55.3,9.9c-0.8,0.1-1.8,0.3-2.5-0.3
	c-0.7-0.6-0.7-1.7-0.3-2.5s1.2-1.3,1.9-1.9c2-1.4,4.1-2.9,5.9-4.7c1.1-1.1,0-3-1.5-2.6c-4.8,1.3-9.3,3.6-14,5.3
	c-3.6,1.3-7.3,2.1-11,3c-3.2,0.7-6.3,1.5-9.5,2.2c-3.2,0.8-7,1.3-9.2-1.8c-1-1.4-1.4-3-0.2-4.3c2.4-2.6,10.4-1.5,13.6-1.9
	c15.3-2,30.7-9.3,45.2-14.3C284.4,455,293.4,451.9,302.5,449.4L302.5,449.4z"/>
<linearGradient id="SVGID_00000156563476015034132850000012311114204568849338_" gradientUnits="userSpaceOnUse" x1="185.7114" y1="165.0883" x2="480.4914" y2="117.6184" gradientTransform="matrix(1 0 0 1 0 34)">
	<stop  offset="0" style="stop-color:#00B0C5"/>
	<stop  offset="1" style="stop-color:#A172B1"/>
</linearGradient>
<path style="fill:url(#SVGID_00000156563476015034132850000012311114204568849338_);" d="M187.4,218.3c1.6,5,3.6,10.1,7.1,14.1
	c0.9,1.1,2.3,2.1,3.6,1.6c0.9-0.3,1.4-1.2,1.9-2c4.4-6.5,13.1-7.9,20.9-8.7c32.8-3.5,66.1-7,98.6-1.3c1.5,0.3,3.1,0.6,4.5,0.1
	c1.2-0.4,2.3-1.2,3.2-2.1c7.8-7.4,11.9-18,13.3-28.6s0.4-21.4-1-32.1c-0.4-3.1-2.1-7.2-5.2-6.6c-1.8,0.4-2.8,2.3-3.9,3.8
	c-3.9,5.7-11.6,7.6-18.5,7.1s-13.5-2.8-20.4-3.7c-9.2-1.2-18.5,0.2-27.8,0.2c-25.1,0.1-49.5-9.5-74.6-6.7c-6.2,0.7-9.3,0.4-10.6,6.5
	c-1.2,6,0.1,13.7,0.7,19.8C180.7,192.8,183.4,205.8,187.4,218.3L187.4,218.3z"/>
<linearGradient id="SVGID_00000001639714543727243920000003685246606769526156_" gradientUnits="userSpaceOnUse" x1="253.0422" y1="152.3288" x2="316.6922" y2="134.5888" gradientTransform="matrix(1 0 0 1 0 34)">
	<stop  offset="0" style="stop-color:#00B0C5"/>
	<stop  offset="1" style="stop-color:#4BC5D6"/>
</linearGradient>
<path style="fill:url(#SVGID_00000001639714543727243920000003685246606769526156_);" d="M308.3,154.3c4.1,0.2,8.2,0.3,12,2
	c7,3.1,11.1,10.8,12.2,18.4c1.1,7.6-0.1,15.4-0.6,23c-0.2,3.6-0.4,7.6-2.9,10.3c-3.6,3.9-10.3,3-14.5-0.2s-7-8-10.4-12
	c-4.7-5.4-10.9-9.6-17.7-11.8c-6-1.9-12.4-2.4-18.7-2.6c-10.1-0.3-20.2,0.1-30.3,1.2c-7.2,0.8-14.4,1.9-21.6,1.3
	c-8.7-0.7-19.7-4.5-22.8-13.6c-2.7-7.6,3-12.1,9.8-14c10.2-2.8,21.8-2.6,32.3-3.1c11.7-0.5,23.3-0.6,35-0.4
	C282.7,153.3,295.5,153.8,308.3,154.3L308.3,154.3z"/>
<path class="st16" d="M309.9,187.4c-0.1,2.4-0.4,4.8,0.4,7.1c0.7,2.3,2.6,4.4,5,4.5c1.6,0.1,3.2-0.9,4.4-2c2.3-2.3,3.5-5.6,4.2-8.8
	c0.9-4.4,1.2-8.9,0.7-13.4c-0.5-4.9-2.1-10.2-6.3-13.1c-2.5-1.8-6.4-3.1-8.4,0c-1.7,2.6-1,7-0.7,9.9
	C309.6,177,310.2,182.1,309.9,187.4L309.9,187.4z"/>
<path class="st16" d="M309.5,225.9c1.8,1.4,4.2,2,6.4,1.7c2.2-0.3,4.3-1.5,6-3.1c2.1-2.1,3.5-5.2,3.4-8.2c-0.2-6.4-8-11.7-13.6-7.3
	C307,212.6,304.4,221.6,309.5,225.9L309.5,225.9z"/>
<path class="st17" d="M205.5,108.6c-8.8,4.9-16.8,11.8-21.6,20.6c-0.6,1-1.1,2.3-0.6,3.4c0.3,0.7,1,1.1,1.7,1.4
	c2.7,1,5.7,0.3,8.4-0.4c16.6-4.2,33.3-8.5,48.7-16.1c3-1.5,6.1-3.2,8.2-5.8c7.6-9.4-5.1-17.6-13.9-15.9
	C226.5,97.8,214.3,103.7,205.5,108.6L205.5,108.6z"/>
<path class="st18" d="M209.4,398.8h41c2.1,0,3.7,1.7,3.7,3.7v18.7c0,2.1-1.7,3.7-3.7,3.7h-41c-2.1,0-3.7-1.7-3.7-3.7v-18.7
	C205.7,400.4,207.4,398.8,209.4,398.8z"/>
<path class="st3" d="M416.8,304.1c-4.4,15.3-1.2,32.6,8.4,45.4c4.3,5.6,10.3,10.6,17.3,11c2.1,0.1,4.2-0.2,6-1.1
	c2.7-1.3,4.7-3.8,6.3-6.4c8.1-13.2,7.3-30.8-0.1-44.5c-4.6-8.6-10.7-12.7-20-15C425.7,291.2,419.5,294.7,416.8,304.1L416.8,304.1z"
	/>
<path class="st19" d="M441.1,290.4c0,0-19.4-4.5-20.7,28c-0.8,20.5,10.3,31.9,22.8,30.8c22.7-2,18.5-40.3,18.5-40.3s0.7-10-2.7-11.3
	C455.8,296.2,441.1,290.4,441.1,290.4L441.1,290.4z"/>
<g id="arm">
	<path class="st2" d="M0.2,164.3c-0.2-1.9-0.3-4,0.6-5.7c0.6-1.1,1.7-2,2.7-2.7c6.6-4.8,14.5-7.9,22.6-8.9c0.7-0.1,1.4-0.1,2,0.1
		c1.5,0.5,2.1,2.2,2.5,3.6c2.7,9.5,5,19.2,6.7,28.9c2.1-0.7,2.3-3.5,2.3-5.7c-0.3-8.2-0.1-16.3,0.5-24.5c0.1-1,0.2-2.1,1-2.8
		c0.5-0.5,1.3-0.6,2-0.8c2.3-0.4,4.9-0.7,6.7,0.7c1.4,1.2,1.9,3.1,2.2,4.9c1.3,6.9,2.2,14,2.6,21.1c0.2,3.6,0.3,7.3,0.9,10.9
		c0.1,0.5,0.2,1.1,0.6,1.3c0.6,0.4,1.5,0,2.1-0.5c3.7-2.6,7.4-5.2,11.1-7.9c0.5-0.4,1.1-0.7,1.7-0.7s1.2,0.4,1.6,0.8
		c3,2.5,6.3,5.8,5.7,9.6c-0.3,1.6-1.2,3-2.2,4.2c-4.2,5-10.6,8.9-11.7,15.4c-0.3,1.7-0.2,3.5-0.9,5.1c-0.8,1.8-2.7,2.9-4.5,3.7
		c-3.7,1.6-7.7,2.5-11.7,3.3c-6.7,1.2-13.5,2-20.4,2.4c-4.3,0.2-9.4,0.5-13.5-1.2c-3.2-1.3-3.5-6.2-4.4-9.2
		c-2.7-9.5-4.9-19.1-6.6-28.8C1.5,175.4,0.7,169.9,0.2,164.3L0.2,164.3z"/>
	<path class="st1" d="M177.2,371.2c0,0-75.7,18.5-127-31.5c-15.5-15.1-25.3-32.9-31.3-50.4c-6.6-19.2-8.8-37.9-9.3-52.3
		c-0.2-7.3,0-13.5,0.3-18.1c0.3-5.3,0.6-6.4,0.6-6.4l51.2-5.2c0,0,0.9,2.5,2.4,6.5l0,0c1.8,4.5,4.3,10.9,7.5,18.1
		C77,244,84,258,91.2,267.8c15.3,20.7,70,5.5,70,5.5c12.9,26.9,15.4,69.4,15.9,88.4C177.2,367.6,177.2,371.2,177.2,371.2z"/>
	<path class="st4" d="M71.6,232c-1.9,0.5-3.7,0.9-5.6,1.2c-6,1.1-12.1,1.4-18.2,1.7c-12.6,0.7-25.5,2-38.2,2.1
		c-0.2-7.3,0-13.5,0.3-18.1c2.4-0.3,4.9-0.4,7.3-0.6c11.4-0.9,22.6-4.3,34.1-5.1c4.2-0.3,8.6-0.1,12.9,0.6l0,0
		C65.9,218.4,68.5,224.9,71.6,232z"/>
	<path class="st3" d="M65.3,206.7c0,0-40.3-8.1-57.2,6.9c0,0-2.2,10.9-0.3,16.2l59.9-8.2C67.7,221.6,69.4,215.5,65.3,206.7
		L65.3,206.7z"/>
	<path class="st4" d="M180,371.8c0,0-78.5,17.9-129.8-32.1c-15.5-15.1-25.3-32.9-31.3-50.4l0,0c0,0,47.5,84.6,161.8,71.2
		C180.8,366.5,180,371.8,180,371.8L180,371.8z"/>
</g>
<rect x="438.1" y="1.7" class="st20" width="9" height="665.9"/>
<path class="st2" d="M436.1,308.1c4.3-1.3,7.2-2.4,11.1-4.7c0,2.7,1,2.1-1.1,3.8c-2.2,1.6-10.1,3.4-12.2,5.2
	c-3.9,3.3-2,10.1-2.2,15.2s1,10.1,2.3,15c0.3,1,0.6,2.1,1.5,2.7c0.7,0.5,1.7,0.5,2.6,0.5c2.8,0,5.6,0,8.4,0c2.5,0,5,0,7.2-1
	c5.1-2.3,6.7-8.6,7.6-14.2c0.8-5.6,1.5-11.3,1.9-17c0.8-10.3-0.6-29.4-14.6-29.5c-7.7,0-15.5,2.8-18.4,7.5c-2.2,3.5-1.5,8.1-0.2,13
	C430.6,307.4,433.4,309,436.1,308.1L436.1,308.1z"/>
<path class="st4" d="M402.2,310.6c0,0-13.5,21.2-17.5,38.6c0,0-4.7-42,2.7-60.2C394.5,296.5,401.3,305,402.2,310.6z"/>
<linearGradient id="SVGID_00000134954009312349944160000009168476687473722029_" gradientUnits="userSpaceOnUse" x1="599.8331" y1="44.9162" x2="454.833" y2="54.4163" gradientTransform="matrix(1 0 0 1 0 34)">
	<stop  offset="0" style="stop-color:#00B0C5"/>
	<stop  offset="1" style="stop-color:#A172B1"/>
</linearGradient>
<path style="fill:url(#SVGID_00000134954009312349944160000009168476687473722029_);" d="M446,18.6c0,0,27.5-25.1,106.2-16.9
	s43.3,32.2,113.3,28.9c0,0-21.4,39.8-15.3,65c11.7,48.7,1.3,64.4,1.3,64.4s-49,0-75.7-10.8c-23.1-9.3-69.4-31.8-129.8-9.6V18.6z"/>
<text transform="matrix(1 0 0 1 474 104.5034)" class="st22 st23">n/g</text>
</svg>
