<?xml version="1.0" encoding="utf-8"?>
<!-- Generator: Adobe Illustrator 26.3.1, SVG Export Plug-In . SVG Version: 6.00 Build 0)  -->
<svg version="1.1"
	 id="svg2" xmlns:cc="http://creativecommons.org/ns#" xmlns:rdf="http://www.w3.org/1999/02/22-rdf-syntax-ns#" xmlns:dc="http://purl.org/dc/elements/1.1/"
	 xmlns="http://www.w3.org/2000/svg" xmlns:xlink="http://www.w3.org/1999/xlink" x="0px" y="0px" viewBox="0 0 1084.2 1086.8"
	 style="enable-background:new 0 0 1084.2 1086.8;" xml:space="preserve">
<style type="text/css">
	.st0{fill:#7A86B9;}
</style>
<g>
	<circle class="st0" cx="538.6" cy="537.1" r="527.8"/>
	<g id="g4" transform="translate(-44.632 -141.55)">
		<g id="g6" transform="matrix(8.3528 0 0 8.3119 -727.13 -3759.5)">
			<path id="path8" d="M116.6,520h14.2c4.2,0,7.2,1.2,9.1,3.6c1.9,2.4,2.5,5.6,1.9,9.7c-0.2,1.9-0.8,3.7-1.6,5.5
				c-0.8,1.8-1.9,3.4-3.4,4.9c-1.8,1.8-3.7,3-5.7,3.5c-2,0.5-4.1,0.7-6.3,0.7h-6.4l-2,10.1H109L116.6,520 M122.8,526l-3.2,15.9
				c0.2,0,0.4,0.1,0.6,0.1h0.7c3.4,0,6.2-0.3,8.5-1c2.3-0.7,3.8-3.3,4.6-7.7c0.6-3.7,0-5.8-1.9-6.4c-1.9-0.6-4.2-0.8-7-0.8
				c-0.4,0-0.8,0.1-1.2,0.1C123.5,526.1,123.1,526.1,122.8,526L122.8,526"/>
			<path id="path10" d="M150.1,509.9h7.3l-2.1,10.1h6.6c3.6,0.1,6.3,0.8,8.1,2.2c1.8,1.4,2.3,4.1,1.6,8.1l-3.6,17.6h-7.4l3.4-16.9
				c0.4-1.8,0.2-3-0.3-3.8c-0.6-0.7-1.8-1.1-3.7-1.1l-5.9-0.1l-4.3,21.8h-7.3L150.1,509.9"/>
			<path id="path12" d="M179.4,520h14.2c4.2,0,7.2,1.2,9.1,3.6c1.9,2.4,2.5,5.6,1.9,9.7c-0.2,1.9-0.8,3.7-1.6,5.5
				c-0.8,1.8-1.9,3.4-3.4,4.9c-1.8,1.8-3.7,3-5.7,3.5s-4.1,0.7-6.3,0.7h-6.4l-2,10.1h-7.4L179.4,520 M185.6,526l-3.2,15.9
				c0.2,0,0.4,0.1,0.6,0.1h0.7c3.4,0,6.2-0.3,8.5-1c2.3-0.7,3.8-3.3,4.6-7.7c0.6-3.7,0-5.8-1.9-6.4c-1.9-0.6-4.2-0.8-7-0.8
				c-0.4,0-0.8,0.1-1.2,0.1C186.3,526.1,185.9,526.1,185.6,526L185.6,526"/>
		</g>
	</g>
</g>
</svg>
