<svg id="Capa_1" xmlns="http://www.w3.org/2000/svg" viewBox="0 0 583.11 1320.34"><defs><style>.cls-1{fill:#f8ec3a;}.cls-2{fill:#f05a2a;}.cls-3,.cls-4{fill:#fff;}.cls-5{fill:#f0f1f1;}.cls-6{fill:#a5dcf0;}.cls-7{fill:#c6421e;}.cls-8{fill:#aa290b;}.cls-9{fill:#2b2b38;}.cls-4{opacity:.5;}.cls-10{fill:#e6e6e7;opacity:.3;}</style></defs><g><g><path class="cls-2" d="M301.99,981.43c-58.58,1.47-108.65,67.47-107.45,114.41,1.19,46.91,116.05,224.51,116.05,224.51,32.42-81.31,105.68-183.97,104.52-230.09-1.17-46.13-54.52-110.31-113.11-108.82Z"/><path class="cls-1" d="M302.09,984.83c-47.88,1.2-88.79,55.15-87.83,93.47,.97,38.37,94.84,183.5,94.84,183.5,26.5-66.45,86.39-150.35,85.44-188.04-.98-37.71-44.57-90.15-92.45-88.93Z"/><path class="cls-3" d="M302.07,984.42c-36.9,.94-68.41,42.49-67.67,72.04,.74,29.55,73.08,141.38,73.08,141.38,20.41-51.2,66.55-115.83,65.82-144.9-.73-29.04-34.33-69.44-71.23-68.52Z"/></g><g><path class="cls-2" d="M257.61,1005.76c-38.23-7.57-80.33,27.98-86.41,58.59-6.06,30.62,42.6,162.58,42.6,162.58,32.89-48.02,95.39-103.97,101.34-134.08,5.96-30.1-19.31-79.52-57.54-87.1Z"/><path class="cls-1" d="M257.16,1007.99c-31.24-6.2-65.65,22.84-70.6,47.87-4.96,25.04,34.83,132.88,34.83,132.88,26.86-39.25,77.95-84.99,82.8-109.59,4.88-24.6-15.79-64.98-47.03-71.17Z"/><path class="cls-3" d="M257.21,1007.74c-24.07-4.78-50.58,17.6-54.41,36.88-3.82,19.28,26.84,102.39,26.84,102.39,20.71-30.24,60.07-65.48,63.82-84.44,3.76-18.96-12.17-50.09-36.25-54.84Z"/></g><g><path class="cls-2" d="M275.1,996.52c-22.71,9.85-31.87,43.65-23.96,61.82,7.9,18.19,81.02,69.54,81.02,69.54-.19-36.97,12.25-88.79,4.48-106.67-7.76-17.88-38.82-34.56-61.54-24.7Z"/><path class="cls-1" d="M275.67,997.83c-18.56,8.05-26.03,35.67-19.58,50.54,6.45,14.87,66.2,56.83,66.2,56.83-.13-30.23,10-72.57,3.67-87.19-6.35-14.61-31.74-28.23-50.29-20.18Z"/><path class="cls-3" d="M275.61,997.68c-14.29,6.2-20.06,27.49-15.09,38.94,4.98,11.44,51.03,43.78,51.03,43.78-.11-23.29,7.71-55.91,2.81-67.18-4.89-11.26-24.45-21.75-38.75-15.54Z"/></g></g><g><path class="cls-7" d="M155.21,707.3s-72.17,41.32-107.83,114.43C2.12,914.49-9.84,1056.59,7.77,1065.62c17.6,9.05,38.89-59.29,74.4-99.36,58.72-66.28,109.37-62.31,109.37-62.31l-36.33-196.65Z"/><path class="cls-8" d="M427.91,707.3s72.16,41.32,107.83,114.43c45.26,92.77,57.21,234.86,39.61,243.9-17.61,9.05-38.89-59.29-74.4-99.36-58.73-66.28-109.37-62.31-109.37-62.31l36.33-196.65Z"/><path class="cls-9" d="M397.4,1019.19c8.08-25.05,62.41-201.66,62.41-421.05,0-181.4-104.77-284.33-168.2-335.2-63.43,50.86-168.2,153.8-168.2,335.2,0,219.39,54.33,395.99,62.42,421.05h211.58Z"/><path class="cls-3" d="M78.66,498.65c0,277.74,68.79,442.65,79.02,474.38H425.53c10.25-31.73,79.03-196.64,79.03-474.38,0-122.41-37.69-237.68-85.05-328.42H163.7c-47.36,90.74-85.04,206.01-85.04,328.42Z"/><path class="cls-7" d="M291.61,0c-37.5,30.07-86.42,90.73-127.9,170.23h255.81C378.02,90.73,329.11,30.07,291.61,0Z"/><path class="cls-5" d="M419.51,170.23h-127.9V973.03h133.92c10.25-31.73,79.03-196.64,79.03-474.38,0-122.41-37.69-237.68-85.05-328.42Z"/><g><path class="cls-6" d="M291.59,290.46c-50.66,0-91.74,41.08-91.74,91.74s41.08,91.73,91.74,91.73,91.74-41.08,91.74-91.73-41.08-91.74-91.74-91.74Z"/><g><path class="cls-9" d="M386.24,436.34c29.61-52.26,11.27-118.64-41-148.27-52.27-29.62-118.65-11.27-148.27,41-29.63,52.28-11.26,118.64,41,148.28,52.27,29.61,118.64,11.26,148.27-41Zm-20.92-11.85c-23.07,40.71-74.78,55.04-115.51,31.95-40.72-23.07-55.02-74.81-31.93-115.52,23.07-40.73,74.79-55.02,115.51-31.94,40.72,23.07,55.02,74.8,31.93,115.51Z"/><path class="cls-10" d="M372.17,428.37c25.22-44.51,9.59-101.01-34.9-126.24-44.49-25.22-101.02-9.59-126.24,34.9-25.21,44.5-9.59,101.01,34.91,126.23,44.5,25.22,101.01,9.61,126.23-34.9Z"/><path class="cls-4" d="M220.21,408.42c-10.13-30.41,.02-65.15,27.37-84.95,27.35-19.79,63.51-18.59,89.24,.57,0,0-43.82,17.72-66.81,34.36-23.7,17.15-49.81,50.02-49.81,50.02Z"/></g></g><path class="cls-7" d="M292.19,740.06h-.14c-18.07,0-30.11,28-30.11,65.54s4.01,260.84,30.11,260.84h.14c26.08,0,30.1-223.29,30.1-260.84s-12.04-65.54-30.1-65.54Z"/><path class="cls-8" d="M291.59,170.23h127.92C378.02,90.73,329.11,30.07,291.61,0c0,0-.01,0-.01,.01V170.23Z"/><path class="cls-8" d="M292.19,740.06h-.07v326.38h.07c26.08,0,30.1-223.29,30.1-260.84s-12.04-65.54-30.1-65.54Z"/></g></svg>