<svg xmlns="http://www.w3.org/2000/svg" viewBox="0 0 2237.99 1003.01"><defs><style>.cls-1{fill:#9c66bf;}</style></defs><path class="cls-1" d="M1464.18,140.83h0c0-14.12-11.45-25.58-25.58-25.58h0c14.12,0,25.58-11.45,25.58-25.58h0c0,14.12,11.45,25.58,25.58,25.58h0c-14.12,0-25.58,11.45-25.58,25.58Z"/><path class="cls-1" d="M708.73,369.04h0c0-14.12-11.45-25.58-25.58-25.58h0c14.12,0,25.58-11.45,25.58-25.58h0c0,14.12,11.45,25.58,25.58,25.58h0c-14.12,0-25.58,11.45-25.58,25.58Z"/><path class="cls-1" d="M1625.5,931.69h0c0-14.12-11.45-25.58-25.58-25.58h0c14.12,0,25.58-11.45,25.58-25.58h0c0,14.12,11.45,25.58,25.58,25.58h0c-14.12,0-25.58,11.45-25.58,25.58Z"/><path class="cls-1" d="M677.25,955.3h0c0-14.12-11.45-25.58-25.58-25.58h0c14.12,0,25.58-11.45,25.58-25.58h0c0,14.12,11.45,25.58,25.58,25.58h0c-14.12,0-25.58,11.45-25.58,25.58Z"/><path class="cls-1" d="M429.37,25.9h0c0-7.15-5.8-12.95-12.95-12.95h0c7.15,0,12.95-5.8,12.95-12.95h0c0,7.15,5.8,12.95,12.95,12.95h0c-7.15,0-12.95,5.8-12.95,12.95Z"/><path class="cls-1" d="M1288.93,1003.01h0c0-7.15-5.8-12.95-12.95-12.95h0c7.15,0,12.95-5.8,12.95-12.95h0c0,7.15,5.8,12.95,12.95,12.95h0c-7.15,0-12.95,5.8-12.95,12.95Z"/><path class="cls-1" d="M453.63,608.39h0c0-7.15-5.8-12.95-12.95-12.95h0c7.15,0,12.95-5.8,12.95-12.95h0c0,7.15,5.8,12.95,12.95,12.95h0c-7.15,0-12.95,5.8-12.95,12.95Z"/><path class="cls-1" d="M1180.89,206.9h0c0-7.15-5.8-12.95-12.95-12.95h0c7.15,0,12.95-5.8,12.95-12.95h0c0,7.15,5.8,12.95,12.95,12.95h0c-7.15,0-12.95,5.8-12.95,12.95Z"/><path class="cls-1" d="M2225.04,660.69h0c0-7.15-5.8-12.95-12.95-12.95h0c7.15,0,12.95-5.8,12.95-12.95h0c0,7.15,5.8,12.95,12.95,12.95h0c-7.15,0-12.95,5.8-12.95,12.95Z"/><path class="cls-1" d="M12.95,970.38h0c0-7.15-5.8-12.95-12.95-12.95H0c7.15,0,12.95-5.8,12.95-12.95h0c0,7.15,5.8,12.95,12.95,12.95h0c-7.15,0-12.95,5.8-12.95,12.95Z"/></svg>