<svg xmlns="http://www.w3.org/2000/svg" viewBox="0 0 2287.9 1686.2"><defs><style>.cls-1{fill:#caa8ef;}</style></defs><g><g><path class="cls-1" d="M562.24,751.06c1.73,1.14,2.21,3.47,1.07,5.2-1.14,1.73-3.47,2.21-5.2,1.07-1.73-1.14-2.21-3.47-1.07-5.2,1.14-1.73,3.47-2.21,5.2-1.07Z"/><path class="cls-1" d="M5.81,733.89c1.73,1.14,2.21,3.47,1.07,5.2-1.14,1.73-3.47,2.21-5.2,1.07-1.73-1.14-2.21-3.47-1.07-5.2s3.47-2.21,5.2-1.07Z"/><path class="cls-1" d="M272.72,720.38c1.73,1.14,2.21,3.47,1.07,5.2-1.14,1.73-3.47,2.21-5.2,1.07-1.73-1.14-2.21-3.47-1.07-5.2,1.14-1.73,3.47-2.21,5.2-1.07Z"/><path class="cls-1" d="M64.52,629.39c1.73,1.14,2.21,3.47,1.07,5.2-1.14,1.73-3.47,2.21-5.2,1.07-1.73-1.14-2.21-3.47-1.07-5.2,1.14-1.73,3.47-2.21,5.2-1.07Z"/><path class="cls-1" d="M318.8,568.07c1.73,1.14,2.21,3.47,1.07,5.2-1.14,1.73-3.47,2.21-5.2,1.07-1.73-1.14-2.21-3.47-1.07-5.2,1.14-1.73,3.47-2.21,5.2-1.07Z"/><path class="cls-1" d="M46.34,232.54c1.73,1.14,2.21,3.47,1.07,5.2-1.14,1.73-3.47,2.21-5.2,1.07-1.73-1.14-2.21-3.47-1.07-5.2,1.14-1.73,3.47-2.21,5.2-1.07Z"/><path class="cls-1" d="M245.27,371.51c1.73,1.14,2.21,3.47,1.07,5.2-1.14,1.73-3.47,2.21-5.2,1.07-1.73-1.14-2.21-3.47-1.07-5.2,1.14-1.73,3.47-2.21,5.2-1.07Z"/><path class="cls-1" d="M124.57,10.71c1.73,1.14,2.21,3.47,1.07,5.2-1.14,1.73-3.47,2.21-5.2,1.07-1.73-1.14-2.21-3.47-1.07-5.2,1.14-1.73,3.47-2.21,5.2-1.07Z"/><path class="cls-1" d="M627.13,272.96c1.73,1.14,2.21,3.47,1.07,5.2-1.14,1.73-3.47,2.21-5.2,1.07-1.73-1.14-2.21-3.47-1.07-5.2,1.14-1.73,3.47-2.21,5.2-1.07Z"/><path class="cls-1" d="M1171.7,772.62c1.73,1.14,2.21,3.47,1.07,5.2-1.14,1.73-3.47,2.21-5.2,1.07-1.73-1.14-2.21-3.47-1.07-5.2,1.14-1.73,3.47-2.21,5.2-1.07Z"/><path class="cls-1" d="M859.65,273.68c1.73,1.14,2.21,3.47,1.07,5.2-1.14,1.73-3.47,2.21-5.2,1.07s-2.21-3.47-1.07-5.2c1.14-1.73,3.47-2.21,5.2-1.07Z"/><path class="cls-1" d="M971.46,97c1.73,1.14,2.21,3.47,1.07,5.2-1.14,1.73-3.47,2.21-5.2,1.07-1.73-1.14-2.21-3.47-1.07-5.2s3.47-2.21,5.2-1.07Z"/><path class="cls-1" d="M1200.13,41.81c1.73,1.14,2.21,3.47,1.07,5.2-1.14,1.73-3.47,2.21-5.2,1.07-1.73-1.14-2.21-3.47-1.07-5.2,1.14-1.73,3.47-2.21,5.2-1.07Z"/><path class="cls-1" d="M1171.32,495.21c1.73,1.14,2.21,3.47,1.07,5.2-1.14,1.73-3.47,2.21-5.2,1.07-1.73-1.14-2.21-3.47-1.07-5.2,1.14-1.73,3.47-2.21,5.2-1.07Z"/><path class="cls-1" d="M584.91,469.46c1.73,1.14,2.21,3.47,1.07,5.2-1.14,1.73-3.47,2.21-5.2,1.07-1.73-1.14-2.21-3.47-1.07-5.2,1.14-1.73,3.47-2.21,5.2-1.07Z"/><path class="cls-1" d="M390.59,325.69c1.73,1.14,2.21,3.47,1.07,5.2s-3.47,2.21-5.2,1.07c-1.73-1.14-2.21-3.47-1.07-5.2,1.14-1.73,3.47-2.21,5.2-1.07Z"/><path class="cls-1" d="M204.49,156.23c1.73,1.14,2.21,3.47,1.07,5.2-1.14,1.73-3.47,2.21-5.2,1.07-1.73-1.14-2.21-3.47-1.07-5.2s3.47-2.21,5.2-1.07Z"/><path class="cls-1" d="M1049.3,593.5c1.73,1.14,2.21,3.47,1.07,5.2-1.14,1.73-3.47,2.21-5.2,1.07-1.73-1.14-2.21-3.47-1.07-5.2,1.14-1.73,3.47-2.21,5.2-1.07Z"/><path class="cls-1" d="M849.14,3.16c1.73,1.14,2.21,3.47,1.07,5.2-1.14,1.73-3.47,2.21-5.2,1.07-1.73-1.14-2.21-3.47-1.07-5.2,1.14-1.73,3.47-2.21,5.2-1.07Z"/><path class="cls-1" d="M954.36,758.89c1.73,1.14,2.21,3.47,1.07,5.2-1.14,1.73-3.47,2.21-5.2,1.07-1.73-1.14-2.21-3.47-1.07-5.2,1.14-1.73,3.47-2.21,5.2-1.07Z"/><path class="cls-1" d="M959.92,438.98c1.73,1.14,2.21,3.47,1.07,5.2-1.14,1.73-3.47,2.21-5.2,1.07-1.73-1.14-2.21-3.47-1.07-5.2,1.14-1.73,3.47-2.21,5.2-1.07Z"/><path class="cls-1" d="M770.16,567.29c1.73,1.14,2.21,3.47,1.07,5.2-1.14,1.73-3.47,2.21-5.2,1.07-1.73-1.14-2.21-3.47-1.07-5.2,1.14-1.73,3.47-2.21,5.2-1.07Z"/><path class="cls-1" d="M29.06,403.01c1.73,1.14,2.21,3.47,1.07,5.2s-3.47,2.21-5.2,1.07-2.21-3.47-1.07-5.2c1.14-1.73,3.47-2.21,5.2-1.07Z"/><path class="cls-1" d="M322.59,.62c1.73,1.14,2.21,3.47,1.07,5.2-1.14,1.73-3.47,2.21-5.2,1.07-1.73-1.14-2.21-3.47-1.07-5.2,1.14-1.73,3.47-2.21,5.2-1.07Z"/><path class="cls-1" d="M480.5,150.17c1.73,1.14,2.21,3.47,1.07,5.2-1.14,1.73-3.47,2.21-5.2,1.07-1.73-1.14-2.21-3.47-1.07-5.2,1.14-1.73,3.47-2.21,5.2-1.07Z"/><path class="cls-1" d="M712.07,57.23c1.73,1.14,2.21,3.47,1.07,5.2-1.14,1.73-3.47,2.21-5.2,1.07-1.73-1.14-2.21-3.47-1.07-5.2s3.47-2.21,5.2-1.07Z"/><path class="cls-1" d="M20.93,51.86c1.73,1.14,2.21,3.47,1.07,5.2-1.14,1.73-3.47,2.21-5.2,1.07-1.73-1.14-2.21-3.47-1.07-5.2,1.14-1.73,3.47-2.21,5.2-1.07Z"/></g><g><path class="cls-1" d="M1924.34,39.54c-1.73-1.14-2.21-3.47-1.07-5.2,1.14-1.73,3.47-2.21,5.2-1.07s2.21,3.47,1.07,5.2c-1.14,1.73-3.47,2.21-5.2,1.07Z"/><path class="cls-1" d="M2213.86,70.22c-1.73-1.14-2.21-3.47-1.07-5.2,1.14-1.73,3.47-2.21,5.2-1.07,1.73,1.14,2.21,3.47,1.07,5.2-1.14,1.73-3.47,2.21-5.2,1.07Z"/><path class="cls-1" d="M2167.78,222.52c-1.73-1.14-2.21-3.47-1.07-5.2,1.14-1.73,3.47-2.21,5.2-1.07,1.73,1.14,2.21,3.47,1.07,5.2-1.14,1.73-3.47,2.21-5.2,1.07Z"/><path class="cls-1" d="M2241.31,419.08c-1.73-1.14-2.21-3.47-1.07-5.2,1.14-1.73,3.47-2.21,5.2-1.07,1.73,1.14,2.21,3.47,1.07,5.2-1.14,1.73-3.47,2.21-5.2,1.07Z"/><path class="cls-1" d="M1859.45,517.63c-1.73-1.14-2.21-3.47-1.07-5.2,1.14-1.73,3.47-2.21,5.2-1.07,1.73,1.14,2.21,3.47,1.07,5.2s-3.47,2.21-5.2,1.07Z"/><path class="cls-1" d="M1314.88,17.97c-1.73-1.14-2.21-3.47-1.07-5.2,1.14-1.73,3.47-2.21,5.2-1.07,1.73,1.14,2.21,3.47,1.07,5.2-1.14,1.73-3.47,2.21-5.2,1.07Z"/><path class="cls-1" d="M1626.93,516.91c-1.73-1.14-2.21-3.47-1.07-5.2s3.47-2.21,5.2-1.07c1.73,1.14,2.21,3.47,1.07,5.2-1.14,1.73-3.47,2.21-5.2,1.07Z"/><path class="cls-1" d="M1515.12,693.59c-1.73-1.14-2.21-3.47-1.07-5.2,1.14-1.73,3.47-2.21,5.2-1.07,1.73,1.14,2.21,3.47,1.07,5.2-1.14,1.73-3.47,2.21-5.2,1.07Z"/><path class="cls-1" d="M1382.88,568.7c-1.73-1.14-2.21-3.47-1.07-5.2,1.14-1.73,3.47-2.21,5.2-1.07,1.73,1.14,2.21,3.47,1.07,5.2-1.14,1.73-3.47,2.21-5.2,1.07Z"/><path class="cls-1" d="M1132.05,277.63c-1.73-1.14-2.21-3.47-1.07-5.2,1.14-1.73,3.47-2.21,5.2-1.07,1.73,1.14,2.21,3.47,1.07,5.2-1.14,1.73-3.47,2.21-5.2,1.07Z"/><path class="cls-1" d="M1963.27,285.93c-1.73-1.14-2.21-3.47-1.07-5.2s3.47-2.21,5.2-1.07c1.73,1.14,2.21,3.47,1.07,5.2-1.14,1.73-3.47,2.21-5.2,1.07Z"/><path class="cls-1" d="M2095.99,464.9c-1.73-1.14-2.21-3.47-1.07-5.2,1.14-1.73,3.47-2.21,5.2-1.07,1.73,1.14,2.21,3.47,1.07,5.2s-3.47,2.21-5.2,1.07Z"/><path class="cls-1" d="M2282.09,634.36c-1.73-1.14-2.21-3.47-1.07-5.2,1.14-1.73,3.47-2.21,5.2-1.07,1.73,1.14,2.21,3.47,1.07,5.2-1.14,1.73-3.47,2.21-5.2,1.07Z"/><path class="cls-1" d="M1437.28,197.09c-1.73-1.14-2.21-3.47-1.07-5.2s3.47-2.21,5.2-1.07c1.73,1.14,2.21,3.47,1.07,5.2-1.14,1.73-3.47,2.21-5.2,1.07Z"/><path class="cls-1" d="M1637.44,787.43c-1.73-1.14-2.21-3.47-1.07-5.2,1.14-1.73,3.47-2.21,5.2-1.07,1.73,1.14,2.21,3.47,1.07,5.2-1.14,1.73-3.47,2.21-5.2,1.07Z"/><path class="cls-1" d="M1532.22,31.71c-1.73-1.14-2.21-3.47-1.07-5.2,1.14-1.73,3.47-2.21,5.2-1.07,1.73,1.14,2.21,3.47,1.07,5.2-1.14,1.73-3.47,2.21-5.2,1.07Z"/><path class="cls-1" d="M1526.66,351.61c-1.73-1.14-2.21-3.47-1.07-5.2,1.14-1.73,3.47-2.21,5.2-1.07,1.73,1.14,2.21,3.47,1.07,5.2s-3.47,2.21-5.2,1.07Z"/><path class="cls-1" d="M1686.74,253.34c-1.73-1.14-2.21-3.47-1.07-5.2,1.14-1.73,3.47-2.21,5.2-1.07,1.73,1.14,2.21,3.47,1.07,5.2-1.14,1.73-3.47,2.21-5.2,1.07Z"/><path class="cls-1" d="M2163.99,789.98c-1.73-1.14-2.21-3.47-1.07-5.2,1.14-1.73,3.47-2.21,5.2-1.07,1.73,1.14,2.21,3.47,1.07,5.2s-3.47,2.21-5.2,1.07Z"/><path class="cls-1" d="M2006.08,640.42c-1.73-1.14-2.21-3.47-1.07-5.2,1.14-1.73,3.47-2.21,5.2-1.07,1.73,1.14,2.21,3.47,1.07,5.2-1.14,1.73-3.47,2.21-5.2,1.07Z"/><path class="cls-1" d="M1774.51,733.36c-1.73-1.14-2.21-3.47-1.07-5.2,1.14-1.73,3.47-2.21,5.2-1.07s2.21,3.47,1.07,5.2c-1.14,1.73-3.47,2.21-5.2,1.07Z"/></g></g><g><g><path class="cls-1" d="M562.24,1646.66c1.73,1.14,2.21,3.47,1.07,5.2-1.14,1.73-3.47,2.21-5.2,1.07s-2.21-3.47-1.07-5.2c1.14-1.73,3.47-2.21,5.2-1.07Z"/><path class="cls-1" d="M5.81,1629.49c1.73,1.14,2.21,3.47,1.07,5.2-1.14,1.73-3.47,2.21-5.2,1.07-1.73-1.14-2.21-3.47-1.07-5.2,1.14-1.73,3.47-2.21,5.2-1.07Z"/><path class="cls-1" d="M272.72,1615.98c1.73,1.14,2.21,3.47,1.07,5.2-1.14,1.73-3.47,2.21-5.2,1.07-1.73-1.14-2.21-3.47-1.07-5.2,1.14-1.73,3.47-2.21,5.2-1.07Z"/><path class="cls-1" d="M64.52,1525c1.73,1.14,2.21,3.47,1.07,5.2-1.14,1.73-3.47,2.21-5.2,1.07-1.73-1.14-2.21-3.47-1.07-5.2,1.14-1.73,3.47-2.21,5.2-1.07Z"/><path class="cls-1" d="M318.8,1463.68c1.73,1.14,2.21,3.47,1.07,5.2-1.14,1.73-3.47,2.21-5.2,1.07-1.73-1.14-2.21-3.47-1.07-5.2,1.14-1.73,3.47-2.21,5.2-1.07Z"/><path class="cls-1" d="M46.34,1128.14c1.73,1.14,2.21,3.47,1.07,5.2-1.14,1.73-3.47,2.21-5.2,1.07-1.73-1.14-2.21-3.47-1.07-5.2,1.14-1.73,3.47-2.21,5.2-1.07Z"/><path class="cls-1" d="M245.27,1267.12c1.73,1.14,2.21,3.47,1.07,5.2-1.14,1.73-3.47,2.21-5.2,1.07-1.73-1.14-2.21-3.47-1.07-5.2,1.14-1.73,3.47-2.21,5.2-1.07Z"/><path class="cls-1" d="M124.57,906.32c1.73,1.14,2.21,3.47,1.07,5.2-1.14,1.73-3.47,2.21-5.2,1.07-1.73-1.14-2.21-3.47-1.07-5.2,1.14-1.73,3.47-2.21,5.2-1.07Z"/><path class="cls-1" d="M627.13,1168.56c1.73,1.14,2.21,3.47,1.07,5.2-1.14,1.73-3.47,2.21-5.2,1.07-1.73-1.14-2.21-3.47-1.07-5.2,1.14-1.73,3.47-2.21,5.2-1.07Z"/><path class="cls-1" d="M1171.7,1668.23c1.73,1.14,2.21,3.47,1.07,5.2-1.14,1.73-3.47,2.21-5.2,1.07-1.73-1.14-2.21-3.47-1.07-5.2,1.14-1.73,3.47-2.21,5.2-1.07Z"/><path class="cls-1" d="M859.65,1169.29c1.73,1.14,2.21,3.47,1.07,5.2-1.14,1.73-3.47,2.21-5.2,1.07-1.73-1.14-2.21-3.47-1.07-5.2,1.14-1.73,3.47-2.21,5.2-1.07Z"/><path class="cls-1" d="M971.46,992.6c1.73,1.14,2.21,3.47,1.07,5.2-1.14,1.73-3.47,2.21-5.2,1.07-1.73-1.14-2.21-3.47-1.07-5.2,1.14-1.73,3.47-2.21,5.2-1.07Z"/><path class="cls-1" d="M1200.13,937.41c1.73,1.14,2.21,3.47,1.07,5.2-1.14,1.73-3.47,2.21-5.2,1.07-1.73-1.14-2.21-3.47-1.07-5.2,1.14-1.73,3.47-2.21,5.2-1.07Z"/><path class="cls-1" d="M1171.32,1390.81c1.73,1.14,2.21,3.47,1.07,5.2-1.14,1.73-3.47,2.21-5.2,1.07-1.73-1.14-2.21-3.47-1.07-5.2,1.14-1.73,3.47-2.21,5.2-1.07Z"/><path class="cls-1" d="M584.91,1365.06c1.73,1.14,2.21,3.47,1.07,5.2-1.14,1.73-3.47,2.21-5.2,1.07-1.73-1.14-2.21-3.47-1.07-5.2,1.14-1.73,3.47-2.21,5.2-1.07Z"/><path class="cls-1" d="M390.59,1221.29c1.73,1.14,2.21,3.47,1.07,5.2-1.14,1.73-3.47,2.21-5.2,1.07-1.73-1.14-2.21-3.47-1.07-5.2,1.14-1.73,3.47-2.21,5.2-1.07Z"/><path class="cls-1" d="M204.49,1051.84c1.73,1.14,2.21,3.47,1.07,5.2-1.14,1.73-3.47,2.21-5.2,1.07-1.73-1.14-2.21-3.47-1.07-5.2s3.47-2.21,5.2-1.07Z"/><path class="cls-1" d="M1049.3,1489.1c1.73,1.14,2.21,3.47,1.07,5.2-1.14,1.73-3.47,2.21-5.2,1.07-1.73-1.14-2.21-3.47-1.07-5.2,1.14-1.73,3.47-2.21,5.2-1.07Z"/><path class="cls-1" d="M849.14,898.76c1.73,1.14,2.21,3.47,1.07,5.2-1.14,1.73-3.47,2.21-5.2,1.07-1.73-1.14-2.21-3.47-1.07-5.2,1.14-1.73,3.47-2.21,5.2-1.07Z"/><path class="cls-1" d="M954.36,1654.49c1.73,1.14,2.21,3.47,1.07,5.2s-3.47,2.21-5.2,1.07c-1.73-1.14-2.21-3.47-1.07-5.2,1.14-1.73,3.47-2.21,5.2-1.07Z"/><path class="cls-1" d="M959.92,1334.59c1.73,1.14,2.21,3.47,1.07,5.2-1.14,1.73-3.47,2.21-5.2,1.07-1.73-1.14-2.21-3.47-1.07-5.2,1.14-1.73,3.47-2.21,5.2-1.07Z"/><path class="cls-1" d="M770.16,1462.9c1.73,1.14,2.21,3.47,1.07,5.2-1.14,1.73-3.47,2.21-5.2,1.07-1.73-1.14-2.21-3.47-1.07-5.2,1.14-1.73,3.47-2.21,5.2-1.07Z"/><path class="cls-1" d="M29.06,1298.62c1.73,1.14,2.21,3.47,1.07,5.2s-3.47,2.21-5.2,1.07-2.21-3.47-1.07-5.2c1.14-1.73,3.47-2.21,5.2-1.07Z"/><path class="cls-1" d="M322.59,896.22c1.73,1.14,2.21,3.47,1.07,5.2-1.14,1.73-3.47,2.21-5.2,1.07-1.73-1.14-2.21-3.47-1.07-5.2,1.14-1.73,3.47-2.21,5.2-1.07Z"/><path class="cls-1" d="M480.5,1045.78c1.73,1.14,2.21,3.47,1.07,5.2-1.14,1.73-3.47,2.21-5.2,1.07-1.73-1.14-2.21-3.47-1.07-5.2,1.14-1.73,3.47-2.21,5.2-1.07Z"/><path class="cls-1" d="M712.07,952.83c1.73,1.14,2.21,3.47,1.07,5.2-1.14,1.73-3.47,2.21-5.2,1.07-1.73-1.14-2.21-3.47-1.07-5.2s3.47-2.21,5.2-1.07Z"/><path class="cls-1" d="M20.93,947.46c1.73,1.14,2.21,3.47,1.07,5.2-1.14,1.73-3.47,2.21-5.2,1.07s-2.21-3.47-1.07-5.2c1.14-1.73,3.47-2.21,5.2-1.07Z"/></g><g><path class="cls-1" d="M1924.34,935.14c-1.73-1.14-2.21-3.47-1.07-5.2,1.14-1.73,3.47-2.21,5.2-1.07s2.21,3.47,1.07,5.2c-1.14,1.73-3.47,2.21-5.2,1.07Z"/><path class="cls-1" d="M2213.86,965.82c-1.73-1.14-2.21-3.47-1.07-5.2,1.14-1.73,3.47-2.21,5.2-1.07,1.73,1.14,2.21,3.47,1.07,5.2-1.14,1.73-3.47,2.21-5.2,1.07Z"/><path class="cls-1" d="M2167.78,1118.13c-1.73-1.14-2.21-3.47-1.07-5.2,1.14-1.73,3.47-2.21,5.2-1.07,1.73,1.14,2.21,3.47,1.07,5.2-1.14,1.73-3.47,2.21-5.2,1.07Z"/><path class="cls-1" d="M2241.31,1314.68c-1.73-1.14-2.21-3.47-1.07-5.2,1.14-1.73,3.47-2.21,5.2-1.07,1.73,1.14,2.21,3.47,1.07,5.2-1.14,1.73-3.47,2.21-5.2,1.07Z"/><path class="cls-1" d="M1859.45,1413.24c-1.73-1.14-2.21-3.47-1.07-5.2,1.14-1.73,3.47-2.21,5.2-1.07,1.73,1.14,2.21,3.47,1.07,5.2-1.14,1.73-3.47,2.21-5.2,1.07Z"/><path class="cls-1" d="M1314.88,913.57c-1.73-1.14-2.21-3.47-1.07-5.2,1.14-1.73,3.47-2.21,5.2-1.07,1.73,1.14,2.21,3.47,1.07,5.2-1.14,1.73-3.47,2.21-5.2,1.07Z"/><path class="cls-1" d="M1626.93,1412.52c-1.73-1.14-2.21-3.47-1.07-5.2s3.47-2.21,5.2-1.07c1.73,1.14,2.21,3.47,1.07,5.2-1.14,1.73-3.47,2.21-5.2,1.07Z"/><path class="cls-1" d="M1515.12,1589.2c-1.73-1.14-2.21-3.47-1.07-5.2,1.14-1.73,3.47-2.21,5.2-1.07,1.73,1.14,2.21,3.47,1.07,5.2-1.14,1.73-3.47,2.21-5.2,1.07Z"/><path class="cls-1" d="M1382.88,1464.31c-1.73-1.14-2.21-3.47-1.07-5.2,1.14-1.73,3.47-2.21,5.2-1.07,1.73,1.14,2.21,3.47,1.07,5.2-1.14,1.73-3.47,2.21-5.2,1.07Z"/><path class="cls-1" d="M1132.05,1173.24c-1.73-1.14-2.21-3.47-1.07-5.2,1.14-1.73,3.47-2.21,5.2-1.07,1.73,1.14,2.21,3.47,1.07,5.2s-3.47,2.21-5.2,1.07Z"/><path class="cls-1" d="M1963.27,1181.53c-1.73-1.14-2.21-3.47-1.07-5.2,1.14-1.73,3.47-2.21,5.2-1.07,1.73,1.14,2.21,3.47,1.07,5.2-1.14,1.73-3.47,2.21-5.2,1.07Z"/><path class="cls-1" d="M2095.99,1360.51c-1.73-1.14-2.21-3.47-1.07-5.2,1.14-1.73,3.47-2.21,5.2-1.07,1.73,1.14,2.21,3.47,1.07,5.2s-3.47,2.21-5.2,1.07Z"/><path class="cls-1" d="M2282.09,1529.96c-1.73-1.14-2.21-3.47-1.07-5.2,1.14-1.73,3.47-2.21,5.2-1.07,1.73,1.14,2.21,3.47,1.07,5.2-1.14,1.73-3.47,2.21-5.2,1.07Z"/><path class="cls-1" d="M1437.28,1092.7c-1.73-1.14-2.21-3.47-1.07-5.2,1.14-1.73,3.47-2.21,5.2-1.07,1.73,1.14,2.21,3.47,1.07,5.2-1.14,1.73-3.47,2.21-5.2,1.07Z"/><path class="cls-1" d="M1637.44,1683.04c-1.73-1.14-2.21-3.47-1.07-5.2,1.14-1.73,3.47-2.21,5.2-1.07,1.73,1.14,2.21,3.47,1.07,5.2-1.14,1.73-3.47,2.21-5.2,1.07Z"/><path class="cls-1" d="M1532.22,927.31c-1.73-1.14-2.21-3.47-1.07-5.2,1.14-1.73,3.47-2.21,5.2-1.07,1.73,1.14,2.21,3.47,1.07,5.2-1.14,1.73-3.47,2.21-5.2,1.07Z"/><path class="cls-1" d="M1526.66,1247.22c-1.73-1.14-2.21-3.47-1.07-5.2,1.14-1.73,3.47-2.21,5.2-1.07,1.73,1.14,2.21,3.47,1.07,5.2-1.14,1.73-3.47,2.21-5.2,1.07Z"/><path class="cls-1" d="M1686.74,1148.94c-1.73-1.14-2.21-3.47-1.07-5.2,1.14-1.73,3.47-2.21,5.2-1.07,1.73,1.14,2.21,3.47,1.07,5.2-1.14,1.73-3.47,2.21-5.2,1.07Z"/><path class="cls-1" d="M2163.99,1685.58c-1.73-1.14-2.21-3.47-1.07-5.2,1.14-1.73,3.47-2.21,5.2-1.07,1.73,1.14,2.21,3.47,1.07,5.2s-3.47,2.21-5.2,1.07Z"/><path class="cls-1" d="M2006.08,1536.02c-1.73-1.14-2.21-3.47-1.07-5.2,1.14-1.73,3.47-2.21,5.2-1.07,1.73,1.14,2.21,3.47,1.07,5.2-1.14,1.73-3.47,2.21-5.2,1.07Z"/><path class="cls-1" d="M1774.51,1628.97c-1.73-1.14-2.21-3.47-1.07-5.2,1.14-1.73,3.47-2.21,5.2-1.07,1.73,1.14,2.21,3.47,1.07,5.2-1.14,1.73-3.47,2.21-5.2,1.07Z"/></g></g></svg>