<?xml version="1.0" encoding="UTF-8"?><svg xmlns="http://www.w3.org/2000/svg" viewBox="0 0 554.39 555.13"><defs><style>.cls-1{fill:#2bf;}.cls-2{fill:#3677e0;}.cls-3{fill:#e8e8e8;mix-blend-mode:multiply;}.cls-4{isolation:isolate;}</style></defs><g class="cls-4"><g id="_Layer_"><g><circle class="cls-2" cx="277.2" cy="277.6" r="277.18" transform="translate(-115.1 277.32) rotate(-45)"/><g><path class="cls-1" d="M360.49,13.16c-6.48-2.04-13.06-3.85-19.74-5.41-64.34,4.43-125.39,13.89-180.21,28.21-3.01,.79-5.98,1.6-8.94,2.41C199.85,21.06,251.11,8.1,302.36,1.57c-8.29-.75-16.68-1.15-25.16-1.15-2.87,0-5.72,.06-8.57,.14-41.38,7.5-83.99,19.2-125.08,34.17-13.2,7.28-25.75,15.59-37.52,24.84,17.54-6.27,36.27-12.03,56.18-17.23,59.88-15.65,127.26-25.44,198.28-29.18Z"/><path class="cls-1" d="M253.59,553.77c5.9,.5,11.85,.82,17.86,.94,28.1-8.52,55.64-12.06,82.01-10.55,5.36-1.53,10.65-3.23,15.87-5.07-36.71-4.88-75.81,.08-115.74,14.69Z"/><path class="cls-1" d="M548.54,220.75c-.51-2.44-1.05-4.87-1.63-7.29-65.62-18.08-133.02-25.51-198.59-22.17-29.05-.77-58.31,.2-87.17,3.07-22.72,2.26-44.85,5.7-66.16,10.2,54.87-19.6,117.16-30.81,183.48-30.93,60.86,5.83,119.07,19.45,168.43,39.8-.63-2.65-1.3-5.29-2.01-7.92-28.72-11.48-60.25-20.75-93.45-27.6,29.77,3.55,60.06,9.38,90.6,17.67-.77-2.49-1.58-4.97-2.42-7.43-52.85-13.9-106.77-20.93-159.87-21-18.23-1.77-36.68-2.85-55.22-3.2,49.29-4.66,101.43-3.72,155,3.87,20.87,5.4,40.87,11.8,59.68,19.16-.95-2.74-1.94-5.45-2.97-8.15-1.21-.46-2.41-.92-3.63-1.37,1.13,.25,2.27,.52,3.41,.78-.95-2.47-1.92-4.92-2.94-7.35-17.08-3.74-34.24-6.84-51.42-9.29-36.27-9.42-75.12-15.83-114.91-18.94,26.51-.36,53.95,.82,82.14,3.86,28.86,5.22,56.58,12.11,82.53,20.51-2.19-5.03-4.52-9.99-6.99-14.86-24.42-5.3-49.09-9.32-73.8-12.03-66.57-12.09-139.01-15.5-209.12-8.86-20.46,1.94-40.47,4.74-59.88,8.33,88.94-25.59,201.58-34.98,324.46-7.92,3.34,1.55,6.57,3.17,9.73,4.84-2.19-3.69-4.46-7.33-6.81-10.91-.26-.06-.53-.12-.79-.18-47.1-21.66-110.94-31.62-184.27-27.93-110.57,5.57-216.12,40.13-291.24,92.6-3.66,2.01-7.25,4.06-10.78,6.16,13.35-11.09,28.37-21.66,44.93-31.55,89.64-53.51,243.87-94.37,421.15-60.14,3.22,1.5,6.33,3.07,9.38,4.68-3.13-4.09-6.37-8.09-9.72-12-10.2-4.57-21.13-8.62-32.79-12.09,8.34,1.04,16.74,2.26,25.2,3.61-2.48-2.66-5-5.28-7.58-7.84-18.97-2.8-37.67-4.85-56.02-6.2,16.44-.3,33.05-.23,49.75,.18-5.49-5.12-11.18-10.03-17.07-14.7-21.32-5.9-44.79-10.03-70.08-12.21,6.97-.24,13.99-.41,21.02-.53,11.36,.16,22.65,.7,33.81,1.65,.11,.02,.22,.05,.34,.07-4.85-3.34-9.81-6.53-14.87-9.56-34.33-5.38-72.56-7.24-113.69-5.15-44.35,2.25-87.92,8.75-129.22,18.83,4.59-1.47,9.21-2.9,13.85-4.29,60.79-14.59,128.69-22.89,199.65-24.68-8.68-3.87-17.6-7.3-26.72-10.27-28.13,.64-57.39,3.48-87.53,8.61-25.62,4.36-51.79,10.38-77.84,17.81-10.92,2.48-21.64,5.15-32.11,8.03-28.76,7.9-54.99,17.07-78.63,27.4-7.67,7.23-14.92,14.9-21.73,22.96,69.37-32.48,153.45-53.36,240.63-57.79,23.68-1.2,46.53-1.03,68.28,.4-5.94,.21-11.93,.53-17.96,.94-20.77,1.14-41.22,2.86-61.24,5.14-89.42,6.01-175.01,30.84-243.21,68.62-3.08,4.29-6.04,8.67-8.87,13.14,33.64-20.4,75.33-37.58,124.48-51.08,19.9-5.46,40.67-10.21,62.15-14.24-62.74,16.69-125.43,41.81-178.69,72.08l1.73,3.04c-7.9,4.35-15.55,8.89-22.96,13.58-1.89,3.74-3.71,7.53-5.43,11.36,26.78-17.95,57.25-33.67,90.31-46.65-26.05,10.27-49.38,21.75-69.56,33.81-7.31,4.37-14.32,8.87-21.03,13.49-1.7,3.81-3.33,7.66-4.86,11.56,9.13-6.69,18.88-13.17,29.27-19.38,.11-.06,.22-.13,.32-.19-11.34,7.4-21.68,15.2-31.04,23.37-1.63,4.33-3.15,8.71-4.57,13.14,38.1-37.01,96.41-66.81,172.69-87.75,42.64-11.71,89.29-20.14,138.38-25.22,24.51-1.24,49.86-1.29,75.94,.07,20.6,2.8,39.77,6.98,57.24,12.47-61.55-8.96-123.81-9.87-183.55-2.41-78.88,9.86-151.63,33.61-210.37,68.67-19.14,11.42-36.24,23.78-51.18,36.81-2.34,7.6-4.36,15.35-6.05,23.22,8.62-7.54,17.82-14.8,27.58-21.74,9.49-5.3,19.43-10.31,29.8-15-.05,.03-.1,.05-.14,.08-22.37,13.35-42.01,27.97-58.6,43.47-.88,4.66-1.64,9.35-2.29,14.09,54.28-45.88,133.45-76.9,228.14-88.22-48.14,10.94-92.88,27.32-132.18,48.45-10.42,4.02-20.48,8.34-30.11,12.96-25.56,12.29-48.1,26.53-67.55,42.61-.24,3.14-.42,6.29-.56,9.45,15.17-13.09,32.34-24.99,51.3-35.61C31.19,244.62,13.88,260.79,.02,277.68c0,3.46,.09,6.91,.21,10.34,20.07-26.4,48.85-51.2,84.94-72.74,4.83-2.88,9.85-5.72,15.04-8.52,34.97-13.68,74.13-23.79,116.64-29.83-67.34,18.76-125.65,48.5-170.27,85.95-17.07,11.12-32.31,23.38-45.7,36.71,.23,2.95,.52,5.89,.85,8.82,.76-.79,1.51-1.58,2.28-2.36-.76,.94-1.49,1.9-2.23,2.84,.36,3.16,.76,6.31,1.22,9.44,13.26-17.74,29.31-34.5,47.83-49.97,17.1-11.11,35.93-21.05,56.32-29.72-28.23,17.42-52.98,37.53-73.48,59.79-10.8,7.19-20.87,14.83-30.21,22.87,.4,2.55,.85,5.09,1.32,7.61,3.68-3.26,7.47-6.46,11.4-9.59-3.66,4.82-7.12,9.72-10.4,14.7,1.08,5.21,2.31,10.36,3.68,15.46,2.06-2.1,4.16-4.19,6.32-6.25-2.01,2.66-3.94,5.34-5.83,8.05,.76,2.77,1.56,5.54,2.4,8.27,10.04-14.91,21.95-29.16,35.54-42.57,39.97-28.17,90.42-49.57,147.82-62.62-30.08,11.8-57.75,26.17-82.45,42.7-39.48,16.66-73.59,38.06-100.62,63.42,.73,2.32,1.49,4.63,2.27,6.92,15.75-15.14,34.07-28.87,54.59-41.04-20.64,13.87-38.51,28.88-53.28,44.74,.83,2.31,1.68,4.61,2.57,6.89,11.29-12.48,24.57-24.45,39.66-35.75-12.23,12.5-23.09,25.71-32.46,39.55-1.48,1.05-2.93,2.12-4.38,3.18,2.08,4.94,4.3,9.79,6.65,14.58,19.44-19.75,43.16-37.23,70.37-52.1,5.13-2.4,10.34-4.73,15.61-6.99-23.97,13.48-45.3,28.44-63.43,44.5-7.57,5.17-14.84,10.53-21.82,16.07,1.63,3.28,3.32,6.52,5.08,9.73,6.28-6.98,13.13-13.81,20.58-20.44,58.08-39.59,133.23-67.84,211.99-78.53,12.04-1.63,23.98-2.81,35.81-3.57-21.86,3.99-43.64,9.18-65.06,15.6-29.29,8.78-56.72,19.51-81.81,31.79-43.81,15.79-83.99,36.89-117.67,61.94,1.12,1.91,2.26,3.8,3.42,5.67,19.68-14.7,41.64-28.03,65.3-39.7-22.97,15.25-42.77,31.99-58.81,49.73,1.27,1.86,2.56,3.71,3.86,5.54,25.92-29.07,62.33-55.47,106.31-77.04,31.98-11.51,65.92-20.17,100.67-25.42-13,2.75-25.57,6.05-37.67,9.93-50.34,16.17-86.36,40.08-112.12,65.34-18.87,10.07-36.53,21.21-52.71,33.25,1.33,1.76,2.68,3.5,4.05,5.22,10.68-7.94,21.98-15.51,33.9-22.61-9.86,11.63-17.73,23.25-24.06,34.29,2.24,2.52,4.51,5,6.84,7.43,5.52-6.24,11.16-12.17,16.93-17.75-5.13,7.24-9.57,14.4-13.43,21.34,2.42,2.44,4.9,4.84,7.41,7.19,3.98-4.66,8.04-9.14,12.16-13.42-3.88,4.98-7.38,9.94-10.62,14.85,1.63,1.5,3.28,2.99,4.95,4.45,16.32-25.04,40.84-51.65,77.58-73.23,60.41-31.42,126.79-37.46,186.47-31.74-25.51,.96-50.6,3.96-74.81,9.08-20.01,4.23-39.08,9.85-57.03,16.74-44.27,12.65-90.96,36.5-131.98,79.36,1.64,1.44,3.31,2.87,4.98,4.27,17.83-18.66,36.87-33.85,56.67-46.05-20.19,14.59-37.6,31.39-51.72,50.09,2.49,1.98,5,3.93,7.56,5.83,.92-.6,1.81-1.2,2.75-1.79-.62,.83-1.19,1.66-1.79,2.49,1.77,1.3,3.56,2.59,5.36,3.85,3.57-4.96,7.43-9.95,11.69-14.93,5.9-2.99,12.2-5.84,18.85-8.54-9.8,7.35-19.43,15.55-28.79,24.68,1.83,1.26,3.68,2.5,5.54,3.72,3.46-3.37,6.96-6.61,10.51-9.73-2.85,3.65-5.56,7.42-8.2,11.25,2.18,1.4,4.39,2.75,6.61,4.09,15.21-13.52,34.82-24.94,57.85-33.95-18.14,11.82-34.67,24.92-49.37,38.84,3.06,1.7,6.15,3.34,9.28,4.93,14.3-9.42,31.1-17.49,49.92-24.03-21.01,9.78-36.45,19.5-44.86,26.53,6.07,2.92,12.26,5.62,18.57,8.09,1.9-1.99,3.82-3.95,5.78-5.88,4.07-1.36,8.12-2.66,12.15-3.91-3.65,3.59-6.67,7.13-9.09,10.56-.95,.5-1.88,1.01-2.82,1.51,2.81,1.03,5.66,2,8.51,2.94,6.77-3.4,13.92-6.57,21.45-9.47-1.61,1.34-3.16,2.66-4.64,3.98-5.45,1.75-10.94,3.62-16.46,5.61,5,1.64,10.07,3.14,15.19,4.5,1.44-1.38,2.93-2.79,4.53-4.22,84.79-27.08,158.75-25.67,196.23-18.62,2.97-1.57,5.92-3.19,8.82-4.86-33.61-7.94-106.53-11.66-191.82,12.6,2.66-1.99,5.48-3.97,8.45-5.93,30.13-9.09,64.79-14.53,102.27-15.74,30.69-.99,60.6,1.18,86.59,5.82,3.62-2.2,7.17-4.48,10.68-6.84-25.89-11.97-71.05-16.65-125.2-11.5,33.63-5.49,76.08-4.56,129.61,8.46,2.36-1.65,4.7-3.33,7.01-5.06-66.21-16.81-123.57-17.36-170.91-1.57-4.49,1.5-8.72,3.13-12.81,4.82-10.58,1.96-21.35,4.27-32.27,6.94,11.31-6.31,24.78-12.22,40.31-17.11,14.46-4.55,32.53-8.78,54.2-11.32,47.26-.94,92.19,5.54,123.16,16.95,2.06-1.57,4.1-3.16,6.11-4.79-13.07-5.2-28.65-9.47-46-12.62,16.21,1.53,33.52,4.03,51.93,7.71,3.86-3.29,7.65-6.68,11.32-10.18-1.63-.95-3.34-1.89-5.11-2.8,2.22,.38,4.48,.83,6.72,1.24,3.36-3.25,6.64-6.58,9.83-10-9.67-5.37-21.92-9.87-36.1-13.47,13.78,1.7,27.71,4.15,41.72,7.28,1.66-1.88,3.29-3.78,4.9-5.71-36.56-8.49-72.91-12.14-108.17-10.95-30.79-2.29-64.82-1.93-98.79,1.11,25.6-8.33,52.77-14.09,81.06-16.6,48.03,3.02,92.16,14.17,125.92,26.41,1.57-1.88,3.11-3.77,4.63-5.69-23.04-8.69-49.8-16.41-78.9-21.59,27.46,1.5,55.66,6.2,84.23,14.62,1.9-2.57,3.76-5.18,5.57-7.81-22.76-10.92-51.64-21.47-84.3-29.1,29.8,3.22,60.23,9.66,90.64,19.47,1.45-2.31,2.87-4.65,4.26-7.01-6.71-3.42-14.01-6.84-21.87-10.18,8.2,1.49,16.51,3.13,24.9,4.9,1.94-3.47,3.8-6.97,5.59-10.53-17.37-8.46-38.74-16.86-62.95-24.03,13.63,2.23,27.53,4.86,41.72,7.9,8.16,3.38,16.08,7.08,23.75,11.04,1.76-3.68,3.44-7.4,5.04-11.17-9.03-2.21-17.98-4.29-26.8-6.19-63.36-26.11-140.51-34.76-221.6-23.75-26.83,3.64-53.25,9.31-78.74,16.75,6.39-2.67,13.05-5.19,20.02-7.55,70.81-23.9,158.25-25.91,260.57-6.11,16.87,7.03,32.73,15.32,47.38,24.84,.86-2.07,1.69-4.15,2.5-6.24-7.01-4.51-14.29-8.75-21.81-12.71,8.03,1.82,16.16,3.77,24.36,5.84,1.42-3.98,2.76-8.01,4-12.08-2.01-1.38-4-2.78-6.06-4.11,2.26,.51,4.54,1.06,6.81,1.58,.62-2.11,1.22-4.23,1.79-6.37-8.88-2.06-17.7-4.01-26.4-5.8-35.31-19.37-76.27-32.48-120.72-38.85,15.6-.23,30.91,.24,45.84,1.41,37.71,8.81,72.19,22.47,101.97,40.68,.57-2.21,1.12-4.43,1.63-6.66-18.83-11.32-39.42-20.92-61.49-28.65,22.65,4.05,44.06,9.88,63.82,17.49,.5-2.65,.97-5.3,1.39-7.97-70.91-29.98-165.22-43.28-258.49-35.18-.22,.02-.43,.04-.65,.06,97.64-16.96,191.65-8.23,260.55,25,.31-2.52,.57-5.06,.81-7.6-57.42-28.96-134.42-45.64-214.89-46.92,81.43-7.44,157.77,3.48,215.87,32.04,.1-2.61,.17-5.23,.2-7.86-30.67-15.63-67-27.74-106.53-35.83,38.85,4.03,74.96,12.4,106.46,25.01-.08-2.84-.21-5.66-.37-8.47-43.77-18.78-96.79-31.58-153.48-37.35,48.95,.21,100.04,6.47,151.93,19.84-.28-2.35-.6-4.69-.94-7.02-71.15-17.92-144.09-23.41-214.24-16.28-20.82-.18-41.83,.55-62.79,2.29-42.35,3.5-82.41,10.71-119.24,21.19,55.72-25.86,121.33-42.49,192.41-46.37,72.59,1.86,143.78,14.87,203.6,37.28-.39-2.51-.81-5-1.26-7.48-32.09-11.72-67.28-20.82-104.13-27.01,33.7,3.7,68.09,10.31,102.78,20.11ZM363.7,70.28c-18.55-1-37.96-1.02-58.09,0-62.05,3.13-122.52,15.4-176.93,34.82,57.28-24.34,120.57-42.97,184.07-51.89,52.98-2.08,100.64,3.12,140.06,14.82-30.19-.39-59.99,.37-89.12,2.26Zm102.49,232.04c-6.61-.84-13.33-1.52-20.14-2.07-9.45-2.23-19.1-4.16-28.92-5.78,16.77,1.95,33.19,4.56,49.07,7.86ZM324.27,104.08c54.55-2.75,103.68,2.11,144.29,13.76-65.18-10.55-131.37-12.03-194.73-4.11-56.33,7.04-109.51,21.2-156.71,41.47-10.71,3.26-21.11,6.78-31.16,10.58,67.85-34.93,151.48-57.32,238.32-61.7ZM68.43,189.79c-7.94,3.82-15.57,7.84-22.93,12.03,6.81-4.71,13.91-9.3,21.35-13.74,15.91-9.5,33.87-18.59,53.62-26.95,37.04-11.24,77.85-19.15,121.66-23.3,39.77-3.76,80.27-4.26,120.01-1.76-22.64,.4-45.11,1.91-67.24,4.58-17.41,.4-34.81,1.42-52.05,3.13-64.91,6.45-125.22,22.36-174.41,46.01Zm82.47-6.38c42.2-16.58,91.87-29.68,146.98-36.24,41.43-.78,82.87,2.12,122.5,8.4-51.69-2.74-102.99,.44-152.37,9.56-8.41,.52-16.81,1.18-25.17,2.01-32.03,3.18-62.93,8.68-91.93,16.26Zm-54.69,52.57c48.43-29.6,107.43-52.03,173.09-64.31,15.65-.95,31.36-1.36,47.04-1.24-31.62,3.35-62.66,9.25-92.7,17.76-27.23,7.71-52.94,17.4-76.81,28.82-17.79,5.52-34.74,11.86-50.62,18.98Zm-53.99,76.93c-11.58,8.29-22.31,17.13-32.06,26.51,8.23-12.65,17.81-24.84,28.61-36.46,13.71-9.03,28.54-17.35,44.41-24.91-14.91,10.83-28.61,22.48-40.96,34.86Zm199.88-67.06c10.69-1.51,21.55-2.76,32.59-3.71,15.33-1.33,30.68-2.07,45.94-2.26-37.48,4.38-75.56,12.17-112.97,23.42-18.69,5.62-36.54,11.92-53.49,18.8-1.72,.54-3.45,1.08-5.16,1.63,28.22-15.31,59.47-28.11,93.08-37.88Zm-143.21,70.08c17.66-10.01,36.89-19.27,57.55-27.65,20.63-6.46,42.41-11.74,65.12-15.78-.84,.25-1.68,.47-2.51,.73-70.44,21.1-130.26,53.45-171.99,91.72,14.68-17.58,32.09-34.02,51.83-49.01Zm-15.18,136.21c7.74-11.58,17.33-23.55,29.16-35.24,8.19-4.35,16.61-8.49,25.23-12.42-6.69,5.38-12.83,10.9-18.49,16.51-12.3,9.09-24.32,19.42-35.9,31.15Zm322.54-64.07c5.06,1.03,10.04,2.12,14.93,3.28-40.92-3.23-78.97-2.34-114.01,2.67-4.85,.19-9.84,.5-14.93,.91,36.63-7.05,75.18-9.3,114.02-6.86ZM125.79,484.6c-3.12,1.6-6.16,3.23-9.08,4.92,28.01-33.31,67.33-59.82,114.47-77.51,3.43-.93,6.87-1.8,10.31-2.6-54.09,18.28-90.8,46.4-115.69,75.2Zm15.85-7.38c23.74-23.82,56.6-46.25,102.04-61.59,19.59-6.61,40.46-11.53,62.55-14.8,3.46-.13,6.91-.21,10.35-.25-7.72,1.19-15.33,2.62-22.82,4.3-50.46,11.34-93.76,32.86-127.83,63.22-8.47,2.8-16.59,5.84-24.29,9.11Zm4.93,20.38c6.52-7.71,13.6-14.94,21.1-21.76,1.6-1.05,3.21-2.08,4.82-3.09,18.54-5.92,39.05-10.85,61.01-14.63-5.02,2.43-9.95,4.95-14.79,7.56-27.94,7.78-52.42,18.55-72.13,31.92Zm16.95,13.13c17.27-14.34,36.64-27.51,57.73-38.94,20.34-5.6,42.59-9.6,66.26-11.82-21.78,6.92-42.05,15.94-60.62,26.93-23.65,5.95-45.03,13.96-63.37,23.84Zm14.57,13.32c-3.06,1.03-6.11,2.07-9.17,3.16,4.48-3.07,10.14-6.58,16.87-10.32-2.62,2.34-5.18,4.72-7.69,7.16Zm81.84-14.46c50.66-9.33,95.59-10.32,128.72-6-17.32-1.51-35.64-2.03-54.39-1.43-28.23,.91-54.89,4.23-79.34,9.66,1.64-.76,3.31-1.51,5.02-2.24Zm-24,4.95c-2.18,1.28-4.29,2.58-6.32,3.89-10.46,3.18-20.38,6.8-29.71,10.83,2.8-2.63,6-5.3,9.53-7.95,8.94-2.5,17.8-4.78,26.5-6.77Zm29.57-28.12c-24.96,7.86-44.76,18.2-59.19,28.91-4.33,1.22-8.66,2.5-13.02,3.83,6.58-5.69,13.45-11.07,20.62-16.08,11.33-4.92,24.19-9.83,38.5-14.32,1.61-.51,3.25-1.01,4.92-1.51,3.59-.6,7.23-1.15,10.9-1.66-.92,.28-1.83,.55-2.72,.83Zm197.63-3.24c-57.72-12.08-104.99-12.66-141.98-8.36-1.74,.04-3.47,.08-5.22,.13-2.47,.08-4.91,.21-7.36,.32,35.73-6.11,78.54-8.89,126.65-3.54,10.73,3.32,20.17,7.16,27.91,11.45Zm-84.11-32.5c39.26,2.82,72.34,9.8,93.29,19.93-12.07-2.28-23.86-4.04-35.36-5.34-22.08-6.84-49.28-11.42-78.91-13.15,6.92-.68,13.91-1.15,20.97-1.44Zm13.72,11.69c-55.82-1.03-102.69,8.17-137.18,18.52-1.81,.31-3.61,.61-5.4,.94,21.55-10.52,44.86-18.47,69.47-23.75,25.61-.62,50.59,.94,73.11,4.29Zm-82.59-12.42c7-.32,13.92-.52,20.74-.61-3.7,.65-7.38,1.37-11.05,2.14-1.31,.03-2.61,.06-3.92,.1-24.25,.78-47.33,3.35-68.86,7.49,3.56-1.58,7.15-3.12,10.79-4.6,16.83-2.16,34.33-3.7,52.29-4.52Zm-54.47-1.7c-20.34,2.72-40.34,6.41-59.28,11.11,40.7-20.26,83.75-29.29,125.37-31.19-23.08,4.75-45.2,11.58-66.09,20.08Zm220.26-18.98c-37.55-8.26-74.28-10.33-109.35-7.5-11.59-.73-23.38-1-35.31-.72-37.39,.9-83.08,7.62-128.64,28.32,45.66-28.7,102.27-44.59,163.59-46.25,42.02,4.67,80.15,15.08,109.71,26.14Zm-107.79-33.01c-.46-.05-.92-.1-1.38-.15,29.25-.43,60.26,1.59,92.96,6.04,6.22,2.03,12.19,4.11,17.85,6.21-36.72-8.68-73.7-12.73-109.43-12.1Zm95.45-.24c-2.04-.68-4.1-1.36-6.18-2.02,8.52,1.44,17.02,3.09,25.49,4.98-6.5-1.07-12.93-2.06-19.3-2.96Zm20.01-3.65c-24-5.31-48.31-8.81-72.54-10.55-29.85-6.24-62.37-10.01-95.97-9.57-8.6,.11-17.64,.53-27,1.34,32.31-4.76,67.24-5.96,104.71-3.58,34.28,5.17,65.39,13.51,90.79,22.36Zm-25.65-21.69c-20.01-3.14-39.42-5.39-58.22-6.78-19.95-3.2-40.89-5.3-62.41-5.88,42.58-1.32,83.33,3.01,120.63,12.67Zm-157.22-5.4c-27.64,3.16-53.49,8.78-77.49,16.88-22.77,7.69-42.45,17.12-59.49,27.62-24.4,13.28-48.34,30.94-70.5,54.25,8.17-12.77,18.49-25.98,31.44-38.76,54.6-40.19,116.57-56.76,176.03-59.99Zm-77.49-6.49c-23.12,7.81-43.05,17.42-60.26,28.11-10.66,4.12-21.09,8.55-31.24,13.28,23.17-18.48,52.96-35.34,91.26-47.64,47.18-15.16,101.39-21.51,162.14-19.1,22.05,2.53,43.29,6.69,63.45,12.46-87.05-12.59-162.55-8.31-225.35,12.89Zm315.31,5.1c-17.27-4.34-34.16-8.09-50.68-11.3-13.01-5.39-26.61-10.04-40.71-13.93,22.26,2.8,45.27,6.62,69.02,11.48,7.74,4.28,15.21,8.85,22.36,13.74Zm-44.14-24.65c-38.22-6.88-74.49-11-108.72-12.37-38.08-4.35-78.49-3.88-119.94,1.75-17.12,2.32-34.06,5.48-50.71,9.39,7.93-2.77,16-5.4,24.24-7.87,38.19-11.44,76.6-18.92,114-22.56,51.6,2.15,99.67,12.94,141.14,31.66Zm-93.85-40.55c-15.22,.14-30.62,.93-46.1,2.36-28.68-1.26-58.42,.09-88.71,4.2-57.55,7.81-113.22,24.91-161.91,48.92,22.18-13.59,47-25.85,73.94-36.39,28.59-8.31,58.37-14.59,88.66-18.5,46.57-6.02,91.85-6.07,134.12-.58Zm47.3-23.59c-12.68-1.6-25.72-2.69-39.08-3.24-61.58-2.56-127.19,6-189.72,24.73-1.81,.54-3.59,1.11-5.38,1.66-43.81,9.87-83.68,24.55-118.12,43.36-9.26,4.35-18.29,8.91-27.04,13.7,39.57-31.25,92-57.66,152.43-75.77,19.45-5.83,38.96-10.61,58.36-14.4,57.98-4.59,116.16-.91,168.55,9.95Zm0-23.37c-12.68-1.6-25.72-2.68-39.08-3.24-42.11-1.74-86.1,1.71-129.71,10.05-1.65,.13-3.29,.24-4.94,.39-16.75,1.46-33.11,3.56-49.05,6.26,53.05-14.54,107.05-22.11,158.38-22.9,22.12,1.99,43.72,5.15,64.4,9.44Zm-110.62-24.38c42.41,.37,83.95,4.62,122.44,12.41-24.35-3.08-49.85-4.44-76.02-4.05-30.73-2.75-62.46-3.23-94.22-1.26,15.56-3.01,31.51-5.4,47.8-7.1Zm-62.32,2.27c2.35-.19,4.7-.35,7.04-.52-13.5,2.73-26.84,5.95-40,9.68-.97,.27-1.92,.57-2.88,.85-60.63,8.78-115.35,26.22-160.72,50.79,12.8-9.88,26.59-19.14,41.3-27.71,46-17.03,98.54-28.4,155.26-33.09Zm-51.28-18.06c-40.09,11.35-76.87,27-109.32,46.11-19.62,7.42-38.05,15.88-55.11,25.29,26.01-23.29,57.24-43.77,92.56-60.52,33.71-10.3,70.59-17.59,110.04-21.52,4.2-.42,8.42-.78,12.64-1.12-17.19,3.13-34.15,7.04-50.8,11.75Z"/><path class="cls-1" d="M405.69,523.24c-25.98-1.64-48.91-.95-68.68,1.09-33.98-1.39-76.85,3.28-125.09,22.7,3.86,.93,7.76,1.79,11.68,2.55,22.31-8.22,43.35-13.25,62.73-16.02-19.77,5.36-35.72,12.05-47.73,18.53,3.96,.55,7.94,1.02,11.95,1.41,19.44-9.18,47.72-18.51,85.37-22.62,16.16,.61,30.25,2.62,41.92,5.05,3.53-1.38,7.03-2.83,10.49-4.35-3.96-.99-8.24-1.96-12.9-2.85,5.97-.02,12.13,.1,18.45,.35,3.99-1.85,7.93-3.8,11.81-5.83Z"/></g><path class="cls-3" d="M450.21,61.4c49.5,50.07,80.08,118.89,80.08,194.87,0,153.08-124.1,277.18-277.18,277.18-65.46,0-125.6-22.7-173.02-60.64,50.25,50.82,119.99,82.32,197.1,82.32,153.08,0,277.18-124.1,277.18-277.18,0-87.63-40.67-165.74-104.16-216.54Z"/></g></g></g></svg>