<?xml version="1.0" encoding="UTF-8"?><svg id="Isolation_Mode" xmlns="http://www.w3.org/2000/svg" viewBox="0 0 808.3 808.3"><defs><style>.cls-1{fill:#2bf;}.cls-2{fill:#3677e0;}.cls-3{fill:#5ff9f9;}</style></defs><circle class="cls-2" cx="404.15" cy="398.94" r="274.27"/><g><path class="cls-3" d="M329.94,350.83c-29.39,43.73-127.62,91.24-178.78,56.52-7.81-5.3-14.86-9.47-21.23-12.67-.02,1.42-.05,2.84-.05,4.26,0,33.92,6.17,66.39,17.43,96.38,113.92,25.38,191.54-51.02,225.08-133.42,39.73-97.6,48.98-151.45,124.97-182.49-92.32,19.22-138.03,127.68-167.42,171.41Z"/><path class="cls-3" d="M628.98,241.84c-7.76-11.09-16.32-21.58-25.6-31.38-86.08,19.11-103.13,77.42-132.49,135.46-46.26,91.45-89.63,107.68-89.63,107.68,104.45-41.05,214.85-169.1,247.72-211.76Z"/><path class="cls-3" d="M433.34,536.06c-88.66,11.34-101.17,82.24-173.46,96.17,22.48,13.93,47.11,24.7,73.29,31.69,21.12-32.13,54.91-73.62,95.82-81.06,59.86-10.88,143.67-85.99,171.97-149.12-11.97,19.59-74.01,90.34-167.62,102.31Z"/><path class="cls-3" d="M657.19,504.94c11.22-26.76,18.32-55.67,20.51-85.95-21.66,40.41-47.39,99.73-134.96,158.78,45.13-15.03,90.38-49.16,114.45-72.83Z"/><path class="cls-3" d="M272.03,158.54c-13.49,24.04-14.77,40.5-44.04,61.14,45.12-21.06,60.23-35.56,70.02-53.7,4.77-8.84,6.69-16.97,7.42-23-11.53,4.45-22.69,9.65-33.4,15.56Z"/></g><g><path class="cls-1" d="M334.66,295.87c-48.62,69.66-148.03,89.25-194.77,29.43-6.52,23.43-10.01,48.12-10.01,73.63,0,9.94,.54,19.75,1.57,29.41,67.52,38.04,169.1,1.03,211.92-82.44,49.09-95.7,94.33-164.69,193.02-174.85-84.9-5.62-141.91,39.1-201.73,124.81Z"/><path class="cls-1" d="M619.2,228.71c-46.79,16.11-79.01,47.95-114.56,111.18-34.48,61.32-84.35,103.43-149.66,123.24,201.36-29.39,168.71-146.94,288.55-198.15-7.15-12.76-15.29-24.89-24.32-36.28Z"/><path class="cls-1" d="M444.23,560c-62.04,21.98-89.15,38.26-127.02,99.13,18.39,6.14,37.65,10.39,57.55,12.51,13.99-28.04,35.55-59.66,65.11-71.37,57.69-22.86,125.17-58.78,161.09-166.53-29.39,60.95-79.82,99.01-156.74,126.26Z"/><path class="cls-1" d="M645.87,528.63c8.58-15.96,15.62-32.87,20.93-50.53-23.83,24.25-72.56,70.49-124.08,99.66,48.02-14.44,77.81-28.62,103.14-49.13Z"/><path class="cls-1" d="M295.33,147.12c-14.25,20.71-16.48,49.64-67.34,72.56,81.83-29.94,77.67-59.88,122.83-89.82-19.3,3.8-37.87,9.63-55.49,17.26Z"/><path class="cls-1" d="M215.96,287.83c-27.6-2.99-36.95-35.13-26.71-59.3-9.89,12.45-18.72,25.77-26.35,39.85-2.5,19.2,11.14,41.64,27,48.91,43.54,19.95,81.5-7.49,104.49-44.99,28.48-46.44,47.36-88.26,96.51-106.85-85.46,9.61-115.2,128.85-174.94,122.39Z"/></g><path class="cls-3" d="M665.46,315.41c-2.96-9.27-6.4-18.32-10.29-27.13-27.57,4.5-58.75,27.18-78.11,64.03-17.63,33.56-42.03,51.84-42.03,51.84,58.7-21.75,65.76-81.81,130.43-88.74Z"/><path class="cls-3" d="M225.8,607.3c42.91-6.48,77.2-31.79,91.41-49.47-27.9,18.87-76.16,29.75-117.93,23.45,8.25,9.26,17.1,17.96,26.52,26.03Z"/></svg>