<?xml version="1.0" encoding="UTF-8"?><svg id="Layer_1" xmlns="http://www.w3.org/2000/svg" viewBox="0 0 2795.29 1716.83"><defs><style>.cls-1{fill:#4c2875;opacity:.3;}</style></defs><path class="cls-1" d="M2683.61,5.82c-141.76,28.74-246.22,95.93-315.01,151.34-68.8,55.41-122.82,86.89-292.59,85.56-169.78-1.33-411.46,36.26-457.03,94.71-45.57,58.45-48.75,141.78-243.57,218.45-194.81,76.67-287.68,131.06-385.15,88.6-97.46-42.46-359.18,2.96-441.21,137.14-82.03,134.17-87.22,277.63-199.98,273.7-75.68-2.65-162.63,1.83-220.22,25.52l-101.49,135.57L0,1394.3l46.91,162.24,81.95,142.4,50.98,17.89h37.14l28.73-17.89c7.83-15.46,14.68-27.69,19.92-34.29,18.78-23.66,27.45-17.25,17.71,26.47-.6,2.69-12.92,23.18-13.59,25.7h29.32c19.95-61.31-20.5-108.57-1.49-154.81,20.53-49.88,5.29-99.33,41.95-107.12,36.67-7.8,95.87-41.13,83.06-4.37-12.8,36.74-23.42,147.75-90.19,238.53-2.37,3.22-4.8,6.54-7.27,9.88h38.35c25.69-42.27,47.95-87.21,59.94-130.31,32.34-116.36,63.3-241.22,134.09-255.92,70.8-14.69,217.12-47.2,275.6-77.92,58.47-30.72,307.32,60,372.07,26.22,64.76-33.79,92.03-100.69,118.4-138.37,88.47-43.04,90-146.36,76.51-199.8,6.96-37.98,156.9,2.12,247.3-13.24,90.4-15.36,179.18-13.48,244.63-104.03,65.45-90.56,59.66-168.18,89.97-179.28,30.31-11.09,189.46-47.81,233.67-69.28,44.2-21.48,72.3-156.93,156.01-177.49,83.71-20.55,197.41-18.3,300.07-27.01,16.96-1.44,32.65,.45,47,4.89l76.53-20.63-23.46-109.47V98.3L2718.76,0c-11.16,1.39-22.87,3.33-35.15,5.82ZM1247.78,1090.12c-51.5,54.26-96.68,63.37-134.38,53.25-19.82-5.32-26.89-73.16,26.14-76.22,53.04-3.07,93.72-46.86,113.43-69.96,19.71-23.09,46.31,38.66-5.19,92.93Zm602.6-344.84c-42.69,49.64-114.27,92.76-199.18,92.64-84.91-.11-123.28,.97-156.44,.75-33.17-.22,20.29-28.07,77.77-40.86,57.48-12.78,105.25-87.86,187.01-105.05,81.75-17.2,135.57,.49,90.84,52.52Z"/></svg>