<?xml version="1.0" encoding="UTF-8"?><svg xmlns="http://www.w3.org/2000/svg" viewBox="0 0 488.17 488.11"><defs><style>.cls-1{fill:#6e0089;}.cls-2{fill:#e8e8e8;mix-blend-mode:multiply;}.cls-3{fill:#2d104f;mix-blend-mode:screen;}.cls-4{isolation:isolate;}</style></defs><g class="cls-4"><g id="Isolation_Mode"><g><circle class="cls-1" cx="244.09" cy="244.14" r="243.95" transform="translate(-101.14 244.1) rotate(-45)"/><path class="cls-3" d="M488.04,243.69c-5.62-21.01-15.76-32.51-21.84-36.97-9.11-6.67-65.94-22.94-94.98-24.33-29.04-1.39-67.62-32.82-77.91-26.64-35.86,30.39-56.9,33.63-87.03,58.07-30.13,24.44-101.13,70.38-131.35,74.72-30.22,4.34-33.66,41.61-32.37,93.08h0c39.58,57.96,103.74,98.48,179.09,105.44,54.33,5.02,106.15-8.19,149.39-34.59,12.53-12.83,18.69-28.54,19.87-48.21,1.8-29.97,13.26-43.5,6.07-44.65-7.19-1.15-30.42-23.23-51.58-31.02-21.16-7.79-43.46-39.99-55.15-44.96-11.69-4.97-15.48,4.4-28.83,22.62-13.35,18.21-75.58,49.89-86.23,49.4-10.65-.5-.59,16.96,17.16,40.48,17.76,23.52,17.04,36.57,45.52,38.72,4.73,1.41,27.37-17.4,32.25-28.13-1.62-3.55-19.26-2.09-25.06-2.32-2.74-.11,1.85,6.25,4.94,9.69,3.08,3.44-3.1,7.25-5.6,10.66-2.5,3.41-10.72-9.42-20.86-25.91-10.14-16.49-25.54-39.3-8.23-44.19,17.3-4.88,45.53-8.76,63.26-25.27,17.73-16.51,30.28-4.98,41.36,8.36,22.33,31.88,50.52,56.52,51.62,65.7,1.1,9.18-2.78,23.08-37.92,38.63-35.14,15.55-61.88,38.36-81.98,38.45-20.1,.09-82.93-28.4-126.37-56.4-43.43-27.99-45.56-54.12-45.25-64.46,.31-10.34,8.45-21.26,38.7-47.04,30.25-25.78,90.06-55.79,121-74.97,30.94-19.18,40.98-50.66,51.37-43.87,10.39,6.79,40.42,11.51,76.93,16.18,36.51,4.67,74.15,4.26,90.49,16.79,13.83,10.61,22.13,25.82,20.7,82.58,3.8-13.76,6.44-28.04,7.8-42.75,.71-7.69,1.04-15.32,1.03-22.89Z"/><path class="cls-3" d="M383.61,43.98c-16.9-1.66-39.41,6.08-88.15,4.37-67.84-2.38-111.77,4.68-138.57-5.02-17.2-6.23-101.92,40.29-151.81,151.91-1.76,8.65-3.08,17.47-3.91,26.45C.29,231.16-.01,240.54,.19,249.82,38.15,167,86.02,117.72,95.68,119.99c10.47,2.46,33.94-2.93,79.8-28.92,47.2-26.75,80.65-20.09,126.05-10.07,45.39,10.03,89.5-4.37,100.63,1.52,6.75,3.57,32.7,23.58,55.73,44.1-18.06-32.78-43.49-61.13-74.28-82.63Z"/><path class="cls-2" d="M413.25,68.38c39.33,47.89,60.55,110.68,54.4,177.26-12.4,134.16-131.2,232.87-265.36,220.48-57.36-5.3-108.24-30.07-146.72-67.16,39.92,48.61,98.49,81.86,166.07,88.1,134.16,12.4,252.97-86.31,265.36-220.48,7.1-76.8-22.23-148.55-73.75-198.21Z"/></g></g></g></svg>