<?xml version="1.0" encoding="UTF-8"?><svg xmlns="http://www.w3.org/2000/svg" viewBox="0 0 444.06 226.41"><defs><style>.cls-1{fill:#ff6c1a;}.cls-2{fill:#932a11;}.cls-3{fill:#db4112;}.cls-4{fill:#e8e8e8;mix-blend-mode:multiply;}.cls-5{fill:#2bf;mix-blend-mode:screen;}.cls-6{isolation:isolate;}</style></defs><g class="cls-6"><g id="_Layer_"><g><circle class="cls-1" cx="223.67" cy="106.48" r="106.46" transform="translate(-9.78 189.35) rotate(-45)"/><path class="cls-4" d="M317.57,56.33c9.87,25.18,10.22,54.1-1.31,80.9-23.23,54.01-85.84,78.97-139.85,55.74-23.09-9.93-40.87-27.07-51.85-47.65,10.02,25.55,29.85,47.25,57.05,58.95,54.01,23.23,116.63-1.73,139.85-55.74,13.3-30.92,10.8-64.65-3.9-92.2Z"/><g><path class="cls-3" d="M230.42,63.24c-6.44,1.32-10.91,3.28-5.22,5.73,5.69,2.45,12.84-2.76,12.32-5.13-.51-2.37-3.06-1.43-7.1-.6Z"/><path class="cls-2" d="M230.68,64.38c3.6-.74,6-1.55,6.85-.06,.03-.17,.03-.33,0-.48-.51-2.37-3.06-1.43-7.1-.6-5.13,1.05-9.01,2.51-7.5,4.29,.53-1.27,3.77-2.34,7.75-3.15Z"/><path class="cls-3" d="M171.01,62.1c2.92,2.48,3.54,8.88,3.54,8.88-6.36-.9-6.46-11.36-3.54-8.88Z"/><path class="cls-2" d="M171.28,63.48c1.74,1.48,2.66,4.34,3.12,6.42-.32-1.93-1.22-5.95-3.39-7.8-1.61-1.37-2.3,1.19-1.53,3.92-.23-2.11,.47-3.67,1.8-2.54Z"/><path class="cls-3" d="M224.25,118.22c-4.29-.39-7.49-4.08-10.04,.47-2.54,4.54,6.33,9.59,11.65,7.89,5.33-1.69,7.49-7.53-1.62-8.36Z"/><path class="cls-2" d="M215.12,120.15c2.54-4.54,5.75-.86,10.04-.47,2.63,.24,4.31,.9,5.26,1.75-.34-1.52-2.17-2.85-6.16-3.21-4.29-.39-7.49-4.08-10.04,.47-.85,1.52-.42,3.1,.73,4.46-.39-.97-.38-2,.18-3Z"/><path class="cls-3" d="M257.3,104.84c-2.15,4.29,2.84,5.51,4.32,4.92,1.48-.59-2.17-9.21-4.32-4.92Z"/><path class="cls-2" d="M257.75,106.11c1.27-2.53,3.07-.56,4.02,1.6-.67-2.47-2.95-5.91-4.47-2.87-.76,1.52-.62,2.65-.06,3.45-.05-.62,.09-1.34,.51-2.18Z"/><path class="cls-3" d="M278.3,77.39c.6,3.94,3.1,3.48,6.21,2.67,3.11-.81-6.6-5.18-6.21-2.67Z"/><path class="cls-2" d="M278.89,78.16c-.27-1.78,4.52-.1,6.23,1.31-.24-1.4-7.14-4.21-6.82-2.08,.19,1.27,.59,2.07,1.13,2.57-.24-.46-.43-1.05-.54-1.79Z"/><path class="cls-3" d="M303.47,120.1c-1.54,4.32,.44,4.67,5.93,4.03,5.49-.65,3.82-5.66-.65-7.58-4.46-1.92-4.38,1.01-5.28,3.55Z"/><path class="cls-2" d="M303.92,121.17c.91-2.55,.82-5.47,5.28-3.55,1.62,.7,2.87,1.8,3.55,2.96-.39-1.51-1.88-3.12-4-4.04-4.46-1.92-4.38,1.01-5.28,3.55-.66,1.85-.67,2.97-.04,3.59-.05-.63,.11-1.45,.49-2.52Z"/><path class="cls-3" d="M252.07,25.03c-2.57,4.99-.98,6.02,4.59,4.73,5.57-1.28-2.91-7.99-4.59-4.73Z"/><path class="cls-2" d="M252.52,25.84c1.01-1.96,4.48-.31,5.87,1.59-.82-2.18-5.18-4.63-6.33-2.4-1.32,2.55-1.54,4.06-.7,4.76-.16-.85,.22-2.13,1.16-3.95Z"/><path class="cls-3" d="M166.17,29.44c-2.03,4.21,.79,6.13,7.4,3.18,6.61-2.94,2.81-4.58-2.74-6.04s-3.72,.93-4.66,2.86Z"/><path class="cls-2" d="M166.72,30.78c.94-1.94-.9-4.33,4.66-2.86,2.5,.66,4.64,1.35,5.64,2.19,.48-1.48-2.45-2.55-6.18-3.53-5.55-1.47-3.72,.93-4.66,2.86-.84,1.75-.84,3.09-.09,3.87-.04-.7,.16-1.54,.63-2.52Z"/><path class="cls-3" d="M154.44,115.89c-3.76,2.91-2.08,9.07,3.65,5.77,5.73-3.31,1.86-10.04-3.65-5.77Z"/><path class="cls-2" d="M154.65,117.36c3-2.33,5.51-1.39,6.26,.48,.22-2.7-2.74-4.83-6.47-1.95-1.82,1.41-2.36,3.58-1.79,5.06,.08-1.24,.72-2.61,2-3.59Z"/><path class="cls-3" d="M153.58,179.19c6.72,3.11,5.1,.97,3.81-3.88-1.29-4.85-7.74,2.06-3.81,3.88Z"/><path class="cls-2" d="M157.47,175.58c-.02-.09-.05-.17-.07-.26-1.13-4.26-6.26,.57-4.8,3.03-.25-2.42,3.62-5.77,4.88-2.77Z"/><path class="cls-3" d="M224.69,201.5c-7.63,.61,.45,4.88,8.37,4.27s2.31-5.13-8.37-4.27Z"/><path class="cls-2" d="M224.99,202.15c6.16-.5,10.63,.8,11.8,2.1,0-1.46-4.9-3.32-12.09-2.74-2.9,.23-3.52,.99-2.76,1.81,.04-.55,.95-1,3.06-1.17Z"/><path class="cls-3" d="M283.52,155.78c-1.23,6.75,4.72,6.13,6.1,4,1.37-2.12-5.51-7.23-6.1-4Z"/><path class="cls-3" d="M308.65,56.71c3.29,2.85,3.91,4.44-2.11,3.84-2.26-.22-3.47-.29-3.92-3.16-.77-4.82,1.43-4.67,6.04-.68Z"/><path class="cls-2" d="M303.22,58.57c-.77-4.82,1.43-4.67,6.04-.68,.79,.68,1.42,1.29,1.84,1.82-.04-.69-.97-1.71-2.45-3-4.61-3.99-6.8-4.14-6.04,.68,.17,1.06,.44,1.74,.83,2.18-.09-.29-.16-.62-.22-1Z"/><path class="cls-2" d="M283.9,156.57c.44-2.43,4.44-.14,5.82,2.04-.71-2.35-5.7-5.56-6.19-2.84-.35,1.95-.11,3.28,.45,4.14-.27-.82-.34-1.92-.08-3.35Z"/><path class="cls-3" d="M215.22,164.62c-5.22,2.87-1.83,4,1.23,5.7,6.59,3.67,6.26-2.25,6.61-6.01,.35-3.76-4.67-1.43-7.84,.31Z"/><path class="cls-2" d="M215.58,165.52c2.55-1.4,6.3-3.18,7.48-1.86-.28-2.82-4.88-.68-7.84,.95-2.79,1.54-3.11,2.57-2.34,3.47,.04-.7,.79-1.51,2.7-2.56Z"/><path class="cls-3" d="M125.07,132.98c1.48-1.12,2.91-1.28,2.4,1.78-.51,3.06-1.91,2.98-2.89,1.24-.97-1.75-.41-2.33,.49-3.01Z"/><path class="cls-2" d="M125.35,133.54c.87-.66,1.71-.98,2.17-.52-.26-1.18-1.34-.88-2.44-.04-.9,.68-1.46,1.27-.49,3.01v.02c-.56-1.34-.03-1.87,.77-2.48Z"/><path class="cls-3" d="M133.17,68.01c.37-2.27,4.96,.06,2.34,3.3-1.78,2.2-3.18,1.82-2.34-3.3Z"/><path class="cls-2" d="M133.4,68.58c.23-1.41,2.09-1.04,2.83,.22-.44-1.69-2.8-2.4-3.06-.79-.39,2.36-.3,3.7,.09,4.26-.17-.73-.15-1.92,.14-3.69Z"/></g><path class="cls-5" d="M382.55,186.22s-.01,.08-.03,.1c.26-.34,.19-1.35,.16-1.75-.05-.71-.25-1.4-.52-2.06-.7-1.66-1.95-3.05-3.21-4.31-1.81-1.81-3.8-3.43-5.81-4.99-4.27-3.32-8.74-6.37-13.21-9.41-8.98-6.1-18.15-11.92-27.47-17.48-2.74-1.64-5.49-3.27-8.24-4.88-.83,2.38-1.75,4.75-2.76,7.1-.13,.3-.27,.59-.4,.89,.26,.15,.51,.29,.77,.44,9.41,5.47,18.65,11.2,27.76,17.16,4.52,2.96,9,6.02,13.4,9.16,2.21,1.58,4.4,3.19,6.5,4.9,.4,.32,.78,.65,1.16,.98-1.33-.14-2.65-.32-3.97-.53-10.66-1.69-21.22-4.25-31.67-6.91-10.43-2.65-20.77-5.6-31.05-8.78-21.14-6.54-42-14.03-62.56-22.2-20.7-8.23-41.13-17.13-61.23-26.73-19.89-9.5-39.48-19.69-58.53-30.8-9.28-5.41-18.41-11.07-27.39-16.95-4.52-2.96-8.99-6.02-13.38-9.17-2.18-1.56-4.33-3.15-6.41-4.83-.39-.31-.77-.64-1.15-.96,.2,.02,.39,.03,.59,.06,2.25,.27,4.48,.64,6.7,1.04,4.66,.85,9.29,1.88,13.92,2.89,9.09,1.99,18.12,4.32,27.09,6.81,1.2,.33,2.4,.68,3.6,1.03,.22-.54,.43-1.07,.66-1.61,.9-2.09,1.86-4.13,2.88-6.14-6.44-1.84-12.9-3.63-19.41-5.27-10.51-2.64-21.16-5.22-31.89-6.81-4.05-.6-8.91-1.5-12.83,.13-2.74,1.23-4,4.16-2.97,7.02,.75,2.07,2.37,3.77,3.93,5.26,1.91,1.83,3.99,3.49,6.09,5.09,4.24,3.23,8.65,6.24,13.06,9.23,17.99,12.21,36.8,23.23,55.97,33.48,19.59,10.48,39.6,20.17,59.89,29.21,20.26,9.03,40.83,17.41,61.67,25.01,20.59,7.51,41.43,14.35,62.59,20.05,10.5,2.83,21.07,5.37,31.72,7.55,5.23,1.07,10.54,2.16,15.88,2.45,3.63,.2,9.13-.01,10.09-4.5Z"/><path class="cls-5" d="M417.39,201.15c.74-2.28,.62-4.73-.3-6.94-.51-1.35-1.49-2.51-2.38-3.64-6.18-7.82-13.71-14.57-21.38-20.88-8.48-6.99-17.39-13.42-26.49-19.58-8.94-6.06-18.07-11.9-27.35-17.42-3.68-2.19-7.45-4.25-11.25-6.24-.53,2.78-1.18,5.55-1.95,8.31,4.47,2.76,8.95,5.5,13.49,8.15,9.37,5.49,18.5,11.45,27.41,17.67,9.05,6.32,17.89,12.95,26.18,20.23,4.07,3.58,8.01,7.33,11.64,11.37,1.12,1.24,2.21,2.51,3.23,3.84,.37,.49,.76,.96,1.07,1.49,.33,.95-.18,1.39-.79,1.97,.02-.02,.04-.02,.06,0-.16-.01-.39,.07-.59,.12-2.69,.2-5.35,.44-8.06,.47-2.87,.04-5.74-.06-8.6-.22-5.81-.33-11.59-.95-17.35-1.77-21.24-3-42.19-8.2-62.76-14.18-21.21-6.17-42.13-13.33-62.77-21.19-20.91-7.96-41.55-16.64-61.88-25.99-20.19-9.29-40.09-19.24-59.53-30.03-17.18-9.54-34.13-19.66-50.22-30.96-8.13-5.71-16.13-11.62-23.69-18.08-3.97-3.39-7.86-6.91-11.49-10.67-1.82-1.88-3.58-3.83-5.23-5.86-.97-1.2-2.98-3.06-.98-4.33,0,.02-.03,.02-.07-.01,.2-.05,.4-.08,.6-.12,5.06-.4,10.06-.57,15.14-.33,5.7,.26,11.39,.85,17.04,1.61,10.76,1.44,21.38,3.59,31.97,5.92,5.3,1.17,10.58,2.51,15.84,3.87,5.28,1.37,10.49,3.02,15.76,4.4l.33,.09c1.51-2.56,3.13-5.04,4.83-7.43-3.23-1.04-6.48-2.01-9.76-2.88-10.46-2.76-20.95-5.37-31.52-7.7-10.63-2.34-21.41-4.18-32.23-5.37-5.37-.59-10.77-1-16.18-1.09-4.24-.07-8.71-.15-12.89,.62-4.49,.83-7.92,4.66-8.2,9.24-.23,4.96,3.44,8.62,6.52,12.07,7.09,7.94,15.3,14.92,23.69,21.46,14.52,11.31,29.98,21.41,45.74,30.88,19.01,11.42,38.59,21.89,58.49,31.68,20.07,9.87,40.49,19.04,61.18,27.53,20.59,8.45,41.46,16.26,62.61,23.19,20.7,6.78,41.67,12.81,62.97,17.4,10.46,2.26,21,4.19,31.63,5.42,5.27,.61,10.56,1.04,15.86,1.22,4.74,.16,9.74,.18,14.39-.5,3.79-.55,7.01-3.15,8.2-6.83Z"/><path class="cls-5" d="M436.97,188.91c-6.16-8.74-14.1-16.22-22.18-23.14-4.13-3.54-8.39-6.93-12.7-10.25-4.31-3.32-8.63-6.64-13.19-9.62-17.26-11.29-35.33-21.4-53.68-30.79-1.74-.89-3.49-1.77-5.23-2.65-.07,1.29-.18,2.58-.3,3.87,5.3,3.24,10.57,6.53,15.8,9.88,8.86,5.67,17.63,11.5,26.21,17.58,4.44,3.14,8.8,6.39,13.16,9.64,4.37,3.26,8.86,6.35,13.19,9.67,8.63,6.61,17.05,13.67,24.49,21.61,3.56,3.8,6.95,7.84,9.63,12.32,2.22,3.7,4.38,8.33,2.91,12.67-.32,.5-.49,1.05-.88,1.52-.83,1-1.8,1.79-2.9,2.47-2.27,1.41-4.94,2.2-7.53,2.78-5.39,1.22-11,1.5-16.51,1.48-10.74-.04-21.48-1.3-32.08-2.99-10.58-1.68-21.08-3.86-31.51-6.32-21.2-4.99-42.11-11.2-62.76-18.1-21.11-7.06-41.97-14.88-62.56-23.36-20.71-8.53-41.15-17.72-61.26-27.59-19.76-9.7-39.23-20.04-58.2-31.2-18.54-10.91-36.74-22.57-53.75-35.76-8.45-6.55-16.71-13.49-24.01-21.34-3.52-3.79-6.88-7.81-9.5-12.28-1.25-2.13-2.33-4.39-2.91-6.8-.4-1.66-.69-3.97,.14-5.56,.94-1.72,2.07-2.98,3.78-4.02,2.04-1.24,4.35-2,6.66-2.58,4.85-1.22,9.92-1.58,14.91-1.67,10.62-.19,21.07,1.22,31.58,2.59,10.57,1.38,21.08,2.92,31.55,4.94,9.87,1.91,19.7,4.05,29.48,6.39,5.56,1.33,11.1,2.73,16.63,4.18,.64-.73,1.29-1.45,1.94-2.17-17.9-6.35-36.06-12.02-54.49-16.63-10.39-2.6-20.91-5.1-31.57-6.29-10.6-1.19-21.41-2.03-32.07-1.11-5,.43-10.05,1.24-14.75,3.07-4.34,1.69-8.83,4.55-10.89,8.9-3.87,8.15-.16,16.86,4.49,23.83,5.91,8.86,13.8,16.39,21.8,23.35,8.14,7.08,16.75,13.62,25.56,19.84,17.69,12.5,36.22,23.81,55.11,34.41,19.33,10.84,39.09,20.94,59.14,30.39,20.27,9.55,40.85,18.45,61.69,26.67,20.66,8.15,41.58,15.66,62.76,22.33,20.69,6.52,41.63,12.32,62.88,16.75,10.65,2.22,21.38,4.1,32.2,5.31,10.53,1.18,21.3,1.88,31.86,.67,8.79-1.01,19.29-3.61,23.52-12.28,3.85-8.37-.79-17.69-5.65-24.6Z"/></g></g></g></svg>