<?xml version="1.0" encoding="UTF-8"?><svg xmlns="http://www.w3.org/2000/svg" viewBox="0 0 191.83 125.02"><defs><style>.cls-1{fill:#ebc87b;}.cls-2{fill:#ff7843;}.cls-3{fill:#ff6c1a;}.cls-4{fill:#2bf;}.cls-5{fill:#e8e8e8;}.cls-5,.cls-6{mix-blend-mode:multiply;}.cls-7{isolation:isolate;}</style></defs><g class="cls-7"><g id="_Layer_"><g><circle class="cls-4" cx="91.96" cy="62.34" r="62.32" transform="translate(-17.15 83.28) rotate(-45)"/><path class="cls-5" d="M114.55,4.25c13.99,7.42,25.17,20.14,30.27,36.44,10.28,32.85-8.02,67.81-40.87,78.09-14.05,4.4-28.48,3.56-41.2-1.39,14.19,7.53,31.28,9.61,47.82,4.43,32.85-10.28,51.15-45.24,40.87-78.09-5.88-18.8-19.86-32.84-36.89-39.47Z"/><path class="cls-4" d="M46.45,62.33c-1.22,.75-2.46,1.26-3.69,1.5-2.03,.4-3.91,.02-5.27-1.07-1.38-1.11-2.16-2.87-2.19-4.97-.04-2.71,1.13-5.74,3.21-8.33,1.14-1.42,2.49-2.64,3.9-3.51,1.2-.74,2.44-1.24,3.69-1.49,2.06-.4,3.95,0,5.32,1.11,1.35,1.11,2.11,2.86,2.14,4.93,.04,2.8-1.13,5.8-3.31,8.46-1.1,1.35-2.42,2.51-3.8,3.36h0Z"/><path class="cls-4" d="M48.62,38.38c-.45,.28-.9,.48-1.32,.59-.82,.21-1.61,.06-2.18-.42-.55-.46-.83-1.17-.79-1.99,.05-1.16,.67-2.55,1.68-3.81,.65-.8,1.33-1.43,2.03-1.86,.44-.27,.9-.47,1.36-.59,.79-.21,1.53-.08,2.1,.35,.59,.45,.9,1.2,.87,2.05-.06,1.22-.63,2.51-1.7,3.83-.62,.76-1.33,1.4-2.06,1.85h0Z"/><path class="cls-3" d="M137.12,19.37c1.92,2.02,3.72,4.2,5.39,6.52,3.31-1.57,6.52-3.05,9.62-4.41,4.16-1.83,10.68-3.97,11.52-2.6,.84,1.36-3.99,6.23-7.48,9.14-15.2,12.63-35.59,27.02-57.4,40.49-21.81,13.48-43.8,25.27-61.9,33.22-4.16,1.83-10.68,3.97-11.52,2.6-.84-1.36,3.99-6.23,7.48-9.14,1.36-1.13,2.76-2.27,4.2-3.42-1.35-2.52-2.52-5.1-3.49-7.71C10.43,102.35-2.88,117.3,.53,122.82c5.52,8.93,52.69-10.22,105.38-42.76C158.59,47.51,196.82,13.89,191.3,4.96c-3.61-5.84-25.04,.33-54.18,14.41Z"/><g class="cls-6"><path class="cls-1" d="M152.13,21.48c4.16-1.83,10.68-3.97,11.52-2.6-.77-1.24-.78-1.25-.93-1.51-.84-1.36-7.36,.77-11.52,2.6-3.1,1.36-6.32,2.84-9.62,4.41-1.3-1.81-2.69-3.53-4.15-5.16-.1,.05-.21,.1-.31,.15,1.92,2.02,3.72,4.2,5.39,6.52,3.31-1.57,6.52-3.05,9.62-4.41Z"/><path class="cls-2" d="M104.97,78.55C53.77,110.19,7.76,129.16,.16,122c.09,.3,.21,.57,.37,.83,5.52,8.93,52.69-10.22,105.38-42.76C158.59,47.51,196.82,13.89,191.3,4.96c-.16-.25-.35-.48-.57-.69,2.99,10.01-34.56,42.65-85.76,74.28Z"/><path class="cls-1" d="M36.09,90.25c-1.44,1.15-2.84,2.3-4.2,3.42-3.5,2.91-8.33,7.78-7.48,9.14,.16,.25,.38,.61,.93,1.51-.84-1.36,3.99-6.23,7.48-9.14,1.36-1.13,2.76-2.27,4.2-3.42-1.35-2.52-2.52-5.1-3.49-7.71-.09,.07-.17,.14-.26,.21,.83,2.03,1.77,4.03,2.82,6Z"/></g></g></g></g></svg>